<svg viewBox="0 0 200 200" xmlns="http://www.w3.org/2000/svg">
  <path fill="#FF0066" d="M44.7,-76.4C58.9,-69.2,71.8,-59.1,81.6,-46.6C91.4,-34.1,98.1,-19.2,95.8,-4.9C93.5,9.3,82.2,22.9,71,34.5C59.8,46.1,48.7,55.7,36.4,62.8C24.1,69.9,10.7,74.5,-1.9,77.8C-14.5,81.1,-26.3,83.1,-37.1,77.2C-47.9,71.3,-57.7,57.5,-66.3,43.3C-74.9,29.1,-82.3,14.5,-80.7,0.9C-79.1,-12.7,-68.5,-25.4,-57.8,-36.4C-47.1,-47.4,-36.3,-56.7,-24.5,-65.3C-12.7,-73.9,0.1,-81.8,13.9,-83.4C27.7,-85,30.5,-79.3,44.7,-76.4Z" transform="translate(100 100)" />
</svg>
