<?xml version="1.0" standalone="no"?>
<!DOCTYPE svg PUBLIC "-//W3C//DTD SVG 20010904//EN"
 "http://www.w3.org/TR/2001/REC-SVG-20010904/DTD/svg10.dtd">
<svg version="1.0" xmlns="http://www.w3.org/2000/svg"
 width="2048.000000pt" height="1019.000000pt" viewBox="0 0 2048.000000 1019.000000"
 preserveAspectRatio="xMidYMid meet">

<g transform="translate(0.000000,1019.000000) scale(0.100000,-0.100000)"
fill="#000000" stroke="none">
<path d="M0 5095 l0 -5095 55 0 55 0 0 60 c0 70 -12 66 160 50 58 -5 211 -17
340 -25 254 -17 405 -36 422 -53 12 -12 3 -18 -42 -25 -14 -2 830 -4 1875 -5
2037 0 1923 -3 1640 44 -292 49 -888 179 -1390 305 -132 33 -591 162 -750 210
-339 104 -700 255 -920 387 -70 42 -245 162 -330 228 -208 160 -381 416 -421
624 -24 128 -14 311 24 423 55 163 245 365 481 511 393 243 1055 481 1866 671
149 35 296 69 328 75 49 10 60 16 69 38 6 16 11 130 11 272 2 242 2 245 23
248 35 5 74 -37 81 -86 5 -36 9 -43 24 -39 26 7 36 -13 15 -29 -24 -17 -13
-50 19 -58 17 -4 25 -13 25 -28 0 -38 32 -108 67 -146 18 -20 43 -48 54 -60
15 -17 27 -22 44 -18 20 5 25 1 35 -28 19 -58 34 -63 80 -26 33 26 41 29 46
16 3 -9 1 -23 -6 -31 -16 -19 -4 -50 33 -85 36 -34 61 -38 76 -13 7 12 13 14
18 7 5 -5 28 -10 53 -11 81 -1 87 -2 99 -29 8 -19 9 -30 1 -39 -7 -9 -7 -15
-1 -19 5 -4 14 2 20 11 9 16 10 16 11 1 0 -24 27 -47 48 -41 12 3 31 -7 52
-25 18 -17 38 -28 45 -26 7 3 20 -4 28 -16 8 -11 21 -18 28 -15 17 6 79 -42
79 -61 0 -9 11 -14 28 -14 16 0 37 -9 47 -20 20 -23 35 -18 35 12 0 17 3 18
14 8 8 -6 16 -21 18 -32 4 -26 71 -50 120 -42 20 3 46 0 58 -6 19 -10 22 -8
33 19 6 17 17 33 23 35 21 8 125 -33 144 -56 29 -37 47 -17 55 60 7 75 11 85
37 95 20 7 58 77 58 108 0 27 -31 79 -47 79 -7 0 -13 -4 -13 -10 0 -15 -46
-12 -59 3 -14 18 -4 27 31 27 17 0 28 5 28 13 0 22 34 47 63 47 22 0 27 5 27
23 0 13 -9 33 -20 44 -10 12 -25 36 -33 55 -12 29 -12 38 4 75 10 22 20 61 24
85 8 58 -18 190 -41 203 -62 37 -74 55 -74 114 0 46 -4 62 -21 77 -20 18 -21
18 -35 -1 -8 -10 -14 -22 -14 -26 0 -3 -14 -12 -31 -19 -26 -11 -33 -11 -47 4
-23 23 -5 50 36 54 l31 3 -1 70 c0 65 -2 69 -23 69 -22 0 -109 83 -130 125
-16 31 -53 31 -67 1 -8 -19 -19 -26 -41 -26 -16 0 -42 -8 -58 -17 -27 -16 -57
-10 -31 6 8 5 11 17 7 33 -5 19 -1 29 14 40 12 8 18 18 14 21 -12 13 -57 7
-75 -10 -16 -14 -23 -15 -39 -5 -10 7 -31 9 -44 6 -24 -6 -25 -5 -16 19 12 31
-4 54 -39 59 -14 2 -25 10 -25 18 0 10 -10 15 -30 15 -29 0 -30 -1 -27 -42 2
-37 -1 -43 -17 -43 -10 0 -21 -9 -24 -20 -7 -27 -21 -25 -36 4 -11 20 -10 26
13 51 32 35 36 71 6 55 -11 -6 -20 -15 -20 -20 0 -14 -21 -12 -54 5 -36 19
-36 19 -36 -4 0 -23 -25 -45 -44 -38 -12 5 -13 13 -6 39 13 42 -2 58 -30 33
-11 -10 -20 -26 -20 -37 0 -10 -6 -18 -14 -18 -8 0 -23 -3 -33 -6 -15 -5 -15
-4 -3 5 12 8 13 15 3 42 -15 38 -1 63 28 54 13 -4 19 -1 19 9 0 20 -34 21 -50
1 -16 -19 -49 -19 -56 0 -4 9 -13 13 -24 10 -22 -7 -55 63 -52 111 2 19 -2 34
-7 34 -6 0 -18 14 -27 31 -11 23 -21 30 -35 26 -12 -3 -22 0 -26 9 -9 23 -21
16 -28 -16 -5 -25 -10 -28 -24 -20 -12 6 -27 4 -46 -6 -15 -8 -29 -13 -31 -11
-9 9 31 67 47 67 20 0 25 15 9 25 -19 12 -100 12 -100 0 0 -13 -36 -45 -51
-45 -11 0 -5 29 17 72 18 35 18 48 -1 48 -18 0 -19 14 -4 42 14 26 6 33 -19
17 -25 -16 -49 0 -54 34 -2 17 -9 22 -30 20 -35 -2 -43 23 -35 115 3 37 1 126
-5 198 -14 157 4 458 28 484 12 12 14 12 14 0 0 -9 10 -20 23 -25 14 -6 23
-21 25 -38 3 -25 6 -27 36 -22 26 5 39 1 63 -19 18 -16 43 -26 61 -26 17 0 42
-4 56 -10 21 -8 27 -6 36 9 5 10 17 21 26 25 13 5 14 1 9 -23 -4 -21 -2 -30
10 -35 9 -3 21 -19 26 -35 6 -17 18 -33 27 -36 10 -3 25 -18 34 -35 9 -16 24
-30 32 -30 8 0 24 -13 36 -30 13 -18 26 -27 36 -23 8 3 22 -1 32 -10 9 -8 43
-18 76 -22 43 -6 67 -15 91 -36 36 -32 89 -48 99 -30 13 20 39 13 33 -10 -4
-13 0 -22 11 -25 9 -3 25 -10 34 -15 10 -5 23 -9 29 -9 6 0 24 -9 40 -20 23
-17 32 -19 49 -10 23 12 50 -1 50 -24 0 -17 53 -66 71 -66 8 0 41 -14 74 -31
49 -25 66 -30 102 -24 29 4 49 2 65 -9 13 -8 59 -20 103 -27 78 -12 93 -18
166 -66 44 -29 64 -23 89 28 26 50 25 56 -10 74 -20 10 -30 23 -30 38 0 28 26
67 45 67 27 0 37 39 30 109 -4 36 -9 131 -10 211 -2 80 -6 152 -10 161 -3 9
-24 31 -46 48 -21 18 -39 40 -39 51 0 27 -40 37 -57 14 -16 -22 -17 -46 -1
-62 9 -9 7 -16 -6 -31 -10 -11 -16 -24 -13 -28 3 -5 -3 -22 -14 -39 -26 -40
-25 -44 21 -44 33 0 40 -3 40 -20 0 -21 -24 -28 -35 -10 -3 6 -26 10 -49 10
-44 0 -69 -16 -64 -41 2 -9 -14 -15 -52 -20 -30 -4 -58 -5 -63 -2 -12 7 13 33
33 33 9 0 34 14 55 30 21 17 44 30 53 30 10 0 12 6 7 23 -16 52 -16 65 -1 80
9 8 16 25 16 36 0 11 9 22 20 26 11 3 20 14 20 24 0 9 5 22 11 28 8 8 8 17 -1
33 -10 20 -16 21 -63 14 -29 -4 -73 -7 -99 -8 -26 -1 -50 -5 -54 -9 -4 -4 -17
-7 -30 -7 -12 0 -24 -6 -27 -12 -3 -10 -9 -10 -23 -2 -13 8 -19 23 -19 50 0
33 -4 39 -25 44 -45 9 -80 40 -80 70 0 30 -15 40 -61 40 -30 0 -36 -9 -18 -27
7 -7 3 -12 -15 -17 -14 -3 -26 -12 -26 -20 0 -19 54 -39 90 -34 36 5 59 -14
41 -36 -12 -14 -5 -46 10 -46 14 0 10 -23 -11 -65 -15 -30 -20 -34 -20 -17 0
24 -19 29 -37 11 -8 -8 -18 -6 -37 7 -23 17 -26 24 -21 58 5 36 4 38 -17 32
-13 -3 -29 -6 -35 -6 -8 0 -13 -13 -13 -29 0 -32 -22 -61 -46 -61 -10 0 -14
12 -14 41 0 40 -1 41 -27 34 -34 -8 -53 -23 -53 -41 0 -8 -6 -14 -13 -14 -7 0
-18 -15 -25 -32 l-13 -33 -18 22 c-10 11 -31 23 -47 25 -26 3 -29 0 -32 -29
-2 -18 2 -41 8 -53 9 -17 8 -20 -10 -20 -11 0 -23 -7 -26 -15 -9 -22 -24 -18
-24 5 0 13 7 20 20 20 24 0 23 -2 8 40 -9 28 -8 35 4 44 29 21 24 79 -10 119
-24 27 -41 20 -48 -20 -4 -21 -11 -47 -17 -58 -10 -19 -12 -18 -17 10 -5 26
-10 30 -34 28 -26 -2 -28 0 -22 27 4 23 1 32 -14 40 -26 14 -27 13 -33 -12 -2
-13 -8 -31 -12 -40 -5 -14 -2 -18 15 -18 56 0 77 -45 44 -95 -19 -29 -71 -36
-60 -9 3 9 6 22 6 30 0 8 9 14 19 14 11 0 22 4 26 9 8 13 -35 41 -63 41 -27 0
-39 24 -22 45 7 8 10 26 6 39 -4 18 -1 28 11 35 15 9 15 10 2 11 -30 0 -68
-25 -83 -57 -20 -42 -45 -43 -53 -2 -4 20 -14 34 -30 40 -20 7 -22 12 -13 29
6 10 9 24 8 31 -2 6 3 14 10 16 8 3 11 -3 10 -17 -2 -14 5 -27 17 -34 11 -6
23 -15 27 -20 8 -12 38 11 38 30 0 10 -8 12 -30 8 -27 -6 -30 -4 -30 20 0 26
22 36 35 15 4 -6 13 -8 21 -5 7 3 16 1 20 -5 3 -6 24 -7 50 -3 35 5 45 3 50
-10 9 -23 73 -22 80 2 3 9 9 24 13 32 4 8 7 30 5 48 -2 25 2 32 17 32 11 0 16
-5 13 -13 -8 -22 37 -40 69 -28 15 6 27 16 28 23 0 7 3 39 5 71 5 58 5 58 -20
51 -21 -5 -29 -1 -43 24 -12 20 -27 32 -46 35 -27 4 -28 2 -23 -23 3 -20 -1
-33 -14 -45 -19 -18 -20 -17 -20 11 -1 26 -2 27 -14 11 -13 -16 -14 -16 -36 1
-19 16 -21 22 -11 40 10 18 8 26 -9 44 -16 17 -23 19 -32 10 -18 -18 -26 -15
-30 11 -2 18 -9 22 -35 21 l-33 -2 5 44 c5 34 2 44 -8 44 -19 0 -34 -19 -42
-52 -5 -20 -11 -25 -23 -20 -31 11 -44 32 -39 60 6 31 -8 62 -27 62 -16 0 -46
-32 -46 -51 -1 -8 -21 -24 -46 -35 -59 -28 -68 -12 -30 58 21 38 25 57 20 84
-4 20 -12 38 -19 41 -23 8 -37 99 -39 246 -1 142 -1 142 -30 170 -24 24 -27
33 -21 65 9 46 40 109 128 252 106 174 103 159 49 259 -42 77 -46 92 -50 166
-3 54 -1 85 7 89 6 4 11 18 11 31 0 13 5 27 10 30 5 3 10 17 10 30 0 13 5 27
10 30 6 3 10 16 10 28 0 12 9 33 20 47 11 14 20 31 20 38 0 6 4 12 8 12 5 0
15 12 23 27 8 15 22 36 32 47 10 12 35 44 56 71 l37 50 -45 1 c-29 1 -68 12
-106 31 -33 17 -76 34 -95 38 -19 4 -57 19 -85 34 -27 16 -80 38 -117 50 -78
26 -322 173 -439 265 -15 12 -52 39 -83 61 -63 44 -129 126 -158 195 -11 25
-23 54 -28 65 -17 39 -29 91 -36 151 -5 51 -3 67 16 100 95 172 96 173 191
229 57 32 110 45 194 45 145 0 294 -32 345 -75 8 -7 26 -16 40 -20 55 -17 242
-173 305 -254 22 -29 52 -67 66 -84 14 -18 36 -66 48 -107 12 -41 29 -90 37
-108 8 -18 14 -44 14 -57 0 -13 9 -32 19 -42 11 -10 36 -53 55 -94 37 -78 61
-98 100 -83 21 8 20 -6 -1 -22 -10 -7 -15 -16 -11 -20 5 -4 16 0 25 8 44 38
107 61 228 83 103 19 154 19 199 0 51 -22 80 -6 71 37 -7 28 8 53 25 43 10 -6
2 -247 -10 -297 -15 -62 -1 -92 41 -86 31 5 42 -12 38 -57 -4 -43 2 -84 14
-97 8 -7 12 -19 9 -26 -9 -27 10 -85 39 -114 16 -17 29 -34 29 -39 0 -4 18
-21 41 -37 58 -43 257 -82 327 -64 52 14 98 56 108 99 19 85 28 108 58 141 23
26 38 57 50 103 17 69 15 93 -18 214 -14 50 -14 68 -4 108 7 26 18 47 25 47
23 0 85 -46 168 -125 80 -75 80 -75 133 -74 45 2 58 -2 90 -28 44 -35 105
-123 123 -176 16 -49 1 -115 -48 -200 -50 -89 -23 -99 63 -24 14 12 34 40 45
62 41 82 58 107 90 131 18 13 38 24 43 23 6 0 31 -15 56 -33 96 -70 134 -185
91 -281 -25 -57 -25 -55 -3 -55 10 0 23 -5 29 -11 8 -8 33 -1 89 23 69 29 80
38 89 66 5 18 14 31 20 29 5 -2 24 -29 40 -60 23 -44 35 -57 50 -55 17 3 20
11 20 59 0 31 -7 69 -15 84 -13 25 -13 29 0 33 8 3 35 25 59 49 24 24 54 46
67 49 38 10 49 30 33 61 -7 14 -20 28 -29 31 -8 3 -34 23 -57 44 -24 21 -52
38 -63 38 -11 0 -25 9 -32 20 -8 12 -24 20 -40 20 -15 0 -56 14 -90 30 -34 17
-65 30 -70 30 -4 0 -28 16 -54 35 -25 19 -54 35 -65 35 -11 0 -22 7 -25 15 -4
8 -18 15 -32 15 -39 0 -61 26 -55 65 5 31 3 33 -52 59 -39 19 -76 28 -117 30
-48 1 -64 6 -78 23 -15 20 -21 21 -60 11 -28 -7 -44 -8 -49 -1 -7 11 -48 20
-124 28 -26 2 -57 9 -68 15 -11 6 -30 10 -42 8 -12 -1 -38 9 -57 23 -45 34
-117 44 -143 21 -17 -15 -19 -15 -28 1 -6 10 -22 17 -38 17 -23 0 -30 6 -35
26 -4 15 -6 27 -4 28 2 1 22 16 46 34 59 46 77 41 99 -33 5 -17 17 -31 27 -33
22 -5 120 25 151 45 29 19 40 17 98 -23 42 -29 57 -34 82 -28 16 4 47 6 67 5
28 -1 45 6 70 27 55 48 72 54 120 41 24 -7 66 -13 93 -14 28 -2 66 -6 87 -10
32 -6 38 -4 53 19 22 33 55 34 93 1 34 -28 62 -31 118 -11 97 34 117 32 205
-20 l81 -47 83 6 c80 6 87 4 147 -25 35 -18 100 -55 144 -84 67 -43 84 -59 94
-89 13 -39 74 -115 92 -115 6 0 37 -13 70 -30 71 -36 112 -39 132 -7 50 79 12
171 -89 212 -48 20 -95 62 -95 86 0 20 146 165 198 196 58 36 89 30 157 -27
58 -49 89 -63 166 -75 20 -3 62 -21 95 -41 32 -20 97 -49 144 -66 90 -32 164
-70 177 -92 4 -7 35 -34 69 -59 33 -25 67 -53 74 -62 21 -25 66 -45 103 -45
82 0 281 77 329 128 45 47 58 87 58 174 0 85 18 124 60 133 31 7 61 -4 141
-53 36 -22 36 -22 60 -3 45 35 106 36 205 5 49 -15 113 -30 143 -33 l54 -6 22
-67 c12 -37 27 -74 34 -82 19 -23 161 -71 178 -60 8 5 26 36 39 68 31 78 37
84 103 102 31 9 66 26 79 38 24 22 24 25 6 113 -10 50 3 81 44 106 53 33 187
78 272 92 54 8 189 92 213 132 35 61 71 66 173 28 85 -32 96 -31 139 6 37 32
46 33 153 18 29 -5 54 6 97 42 45 37 54 41 92 36 29 -3 54 -15 85 -41 25 -22
65 -43 98 -52 97 -28 151 -68 207 -151 19 -29 50 -62 68 -73 59 -36 114 -150
94 -193 -14 -32 -33 -41 -119 -62 -85 -20 -153 -54 -255 -129 -39 -28 -84 -60
-100 -72 -36 -25 -44 -53 -33 -123 19 -121 135 -261 217 -261 28 0 147 72 241
147 67 53 84 73 120 142 38 73 60 98 151 175 9 7 20 35 24 62 6 45 14 56 99
139 67 65 97 101 106 130 20 63 46 85 99 85 67 -1 121 -37 179 -123 18 -26 37
-47 42 -47 5 0 22 -12 39 -26 40 -33 40 -67 1 -143 -17 -32 -36 -83 -42 -114
-11 -50 -10 -58 6 -75 9 -11 37 -25 61 -32 26 -7 59 -27 77 -46 48 -48 81 -53
126 -17 63 51 78 56 111 38 24 -12 31 -24 37 -60 3 -25 3 -61 -1 -81 -7 -39 6
-55 65 -80 l25 -10 -27 -26 c-18 -16 -28 -37 -30 -59 -3 -31 0 -34 26 -37 18
-2 26 0 21 7 -4 7 6 11 29 11 21 0 45 9 63 23 15 13 49 32 75 42 26 10 71 33
100 52 29 18 75 42 103 52 27 11 64 26 80 35 17 9 35 16 41 16 21 0 64 41 64
61 0 25 49 38 62 16 5 -9 15 -14 23 -11 9 4 15 0 15 -9 0 -10 -11 -14 -37 -13
-33 1 -38 -2 -41 -23 -2 -12 -1 -34 3 -48 5 -21 11 -24 35 -21 30 4 42 -13 20
-27 -6 -4 -8 -11 -5 -16 4 -5 -5 -9 -18 -9 -22 0 -27 -7 -37 -52 -7 -29 -18
-59 -24 -67 -6 -8 -15 -28 -21 -45 -12 -36 -45 -49 -45 -18 0 47 -17 63 -42
39 -26 -26 -63 -47 -81 -47 -21 0 -87 -50 -87 -66 0 -6 -9 -19 -20 -29 -11
-10 -20 -24 -20 -31 0 -7 -14 -30 -32 -50 -21 -24 -32 -47 -33 -68 0 -24 -5
-32 -23 -34 -31 -5 -52 -51 -52 -118 0 -45 5 -63 22 -81 21 -23 21 -23 3 -57
-11 -20 -17 -37 -15 -38 56 -35 82 -41 191 -46 71 -3 123 0 135 6 10 6 32 37
49 69 16 32 35 65 41 73 7 8 24 51 40 95 15 44 35 89 44 100 10 11 21 30 24
42 4 12 23 36 42 52 19 17 51 59 71 93 38 66 139 185 233 276 67 65 80 64 191
-9 65 -42 81 -49 98 -40 11 6 31 11 44 11 36 0 43 15 65 124 21 102 29 116 73
116 36 0 167 -33 204 -52 17 -8 75 -27 130 -43 55 -15 138 -46 185 -70 47 -23
114 -55 150 -71 94 -41 156 -96 195 -174 63 -125 80 -227 49 -290 -9 -18 -20
-64 -24 -102 -4 -38 -16 -85 -26 -103 -9 -18 -14 -40 -11 -49 9 -23 37 -20 37
5 0 28 17 58 54 97 l31 33 3 139 4 139 44 41 c52 47 73 48 94 3 17 -36 54 -45
64 -15 3 9 21 44 40 77 26 44 32 62 24 72 -6 8 -19 11 -31 7 -50 -16 -38 57
20 109 21 19 53 64 71 100 18 36 39 70 47 77 7 6 17 24 20 40 4 16 20 46 36
66 18 23 29 49 29 68 0 52 20 105 43 117 12 7 28 18 35 26 31 31 155 2 209
-49 32 -31 57 -31 46 0 -3 9 -13 23 -21 29 -14 11 -13 15 3 33 23 25 51 26 64
1 6 -10 30 -30 54 -44 31 -19 47 -35 53 -59 8 -28 29 -45 135 -113 166 -106
202 -136 237 -203 90 -169 107 -339 39 -393 -16 -13 -20 -27 -19 -61 2 -31 -2
-49 -13 -58 -26 -22 -17 -48 38 -104 111 -114 146 -172 154 -258 5 -56 2 -70
-19 -108 -29 -53 -55 -62 -127 -43 -30 7 -56 11 -59 8 -3 -3 -16 2 -28 10 -26
17 -29 14 -39 -35 -9 -43 -79 -183 -100 -200 -8 -7 -15 -19 -15 -26 0 -8 -16
-35 -35 -60 -20 -26 -43 -61 -52 -78 -24 -47 -44 -66 -70 -66 -13 0 -22 -4
-19 -9 4 -5 3 -16 0 -25 -4 -11 -16 -14 -52 -10 -26 3 -63 6 -84 7 -20 1 -40
5 -44 9 -9 10 -85 -1 -101 -14 -7 -5 -25 -7 -41 -3 -20 4 -33 1 -42 -10 -7 -8
-27 -15 -44 -15 -22 0 -40 -8 -56 -25 -13 -14 -28 -25 -33 -25 -5 0 -20 -9
-34 -20 -14 -11 -32 -20 -40 -20 -8 0 -38 -15 -66 -33 -66 -42 -126 -71 -201
-94 -32 -10 -69 -28 -83 -40 -34 -32 -57 -43 -80 -37 -29 8 -139 -51 -210
-113 -33 -29 -66 -53 -72 -53 -6 0 -27 -16 -46 -36 -29 -28 -42 -35 -63 -31
-14 3 -48 -2 -75 -11 -42 -14 -50 -14 -57 -1 -30 51 -36 54 -112 55 -40 1 -86
4 -103 8 -42 8 -57 -5 -53 -45 2 -27 12 -39 45 -62 46 -30 66 -73 42 -87 -10
-7 -11 -13 -1 -32 23 -46 13 -306 -13 -323 -8 -5 -33 -21 -55 -35 -37 -22 -39
-26 -24 -37 11 -8 47 -13 90 -13 66 0 74 -2 93 -26 23 -29 56 -113 66 -166 6
-31 3 -38 -20 -54 -99 -70 -104 -85 -45 -131 35 -26 47 -30 81 -26 34 5 47 1
94 -32 41 -28 62 -36 82 -32 15 3 41 -2 59 -11 30 -14 35 -14 59 2 30 19 103
14 142 -10 12 -8 44 -14 70 -14 42 0 52 5 90 42 38 38 48 42 97 44 29 1 64 9
77 17 20 13 97 27 174 31 11 1 25 5 32 9 7 4 21 2 31 -4 15 -9 29 -8 66 6 26
10 51 26 56 35 6 11 26 19 56 23 26 2 50 10 54 17 5 8 13 9 21 4 22 -14 131
-4 169 16 37 18 128 31 250 35 41 1 86 5 99 10 16 5 26 3 32 -6 10 -16 1 -79
-12 -93 -11 -13 -11 -87 0 -104 13 -21 -9 -94 -30 -99 -10 -3 -21 -19 -25 -37
-12 -59 -38 -73 -55 -28 -9 24 -11 25 -20 9 -7 -12 -7 -22 -1 -30 6 -7 6 -21
1 -35 -7 -18 -14 -22 -29 -17 -15 5 -31 -3 -60 -29 -22 -20 -47 -36 -55 -36
-8 0 -19 -9 -25 -20 -16 -29 -54 -42 -132 -45 -49 -2 -68 1 -72 11 -9 23 -31
16 -54 -16 -17 -22 -31 -30 -55 -30 -18 -1 -43 -7 -57 -15 -14 -8 -35 -14 -46
-15 -12 0 -24 -7 -28 -15 -3 -8 -16 -15 -28 -15 -13 -1 -34 -7 -48 -15 -14 -8
-34 -14 -45 -15 -12 0 -36 -13 -55 -30 -23 -19 -46 -29 -67 -30 -17 0 -35 -4
-38 -10 -3 -5 -15 -10 -26 -10 -10 0 -19 5 -19 10 0 16 -62 12 -156 -10 -78
-18 -89 -19 -104 -5 -23 21 -38 19 -79 -13 -20 -15 -44 -31 -55 -37 -10 -5
-25 -30 -32 -54 -7 -24 -22 -54 -34 -66 -18 -19 -21 -30 -15 -64 4 -22 4 -49
0 -61 -8 -25 -74 -60 -115 -60 -46 0 -46 -22 -2 -87 21 -32 51 -79 66 -105 28
-50 82 -98 109 -98 17 0 67 59 67 78 0 14 32 32 58 32 19 0 19 -1 1 -52 -10
-29 -18 -65 -19 -80 0 -18 -14 -42 -42 -70 -36 -37 -42 -51 -49 -102 -4 -32
-6 -98 -4 -146 2 -81 9 -126 37 -240 6 -25 11 -59 10 -77 -1 -18 3 -44 8 -59
7 -18 7 -30 0 -39 -6 -8 -7 -36 -1 -83 5 -39 7 -117 4 -174 -5 -86 -3 -106 10
-116 12 -10 21 -11 36 -3 13 8 60 8 148 2 130 -9 153 -5 153 25 0 20 85 72
129 80 48 9 58 14 136 79 37 30 72 55 77 55 6 0 30 18 55 39 24 22 56 42 71
46 15 3 36 19 47 36 11 16 29 31 40 34 11 2 32 6 46 9 15 3 36 21 50 41 13 20
34 38 46 41 12 3 25 15 29 26 7 23 60 48 102 48 17 0 38 10 52 25 13 14 33 25
45 25 11 0 26 5 33 12 7 7 31 12 55 13 23 0 44 5 46 10 6 17 42 38 80 46 82
18 96 23 109 36 7 7 19 13 26 13 8 0 19 7 26 15 7 8 28 15 46 15 19 0 34 4 34
9 0 5 15 28 34 50 19 23 37 54 41 71 6 27 37 60 57 60 5 0 8 -11 8 -25 0 -13
8 -29 18 -34 9 -5 26 -33 36 -61 10 -28 25 -54 32 -57 8 -3 30 2 50 12 36 17
69 14 62 -7 -2 -6 -25 -17 -51 -25 -36 -10 -50 -20 -58 -41 -6 -15 -18 -35
-27 -45 -15 -17 -18 -16 -48 20 -27 31 -35 36 -46 25 -19 -19 -14 -160 9 -247
16 -58 23 -70 43 -75 22 -5 24 -10 22 -50 -4 -72 -13 -123 -24 -145 -22 -42
-61 -75 -91 -75 -16 0 -41 -8 -55 -17 -15 -10 -36 -23 -47 -29 -11 -6 -22 -20
-24 -30 -5 -28 -23 -35 -43 -17 -16 14 -20 14 -53 -11 -39 -30 -45 -46 -15
-46 11 0 20 -3 20 -6 0 -3 -33 -37 -72 -75 -68 -65 -139 -109 -177 -109 -14 0
-56 -33 -144 -114 -18 -16 -40 -26 -59 -26 -22 0 -46 -12 -77 -39 -26 -21 -55
-41 -66 -45 -12 -3 -26 -23 -35 -48 -22 -61 -83 -102 -157 -105 -48 -1 -60 -6
-83 -32 -16 -16 -52 -41 -81 -55 -47 -23 -54 -24 -69 -11 -22 20 -74 19 -91
-1 -7 -9 -37 -28 -67 -42 -35 -16 -58 -35 -69 -56 -8 -17 -17 -32 -18 -34 -2
-2 -17 4 -34 12 -69 36 -241 0 -241 -51 0 -7 8 -13 18 -13 11 0 22 -12 30 -33
19 -54 15 -76 -25 -112 l-37 -34 24 -19 c20 -16 22 -22 12 -35 -10 -12 -18
-13 -41 -4 -67 25 -109 -59 -61 -120 13 -16 18 -34 14 -46 -10 -32 -7 -87 6
-102 8 -10 11 -31 6 -61 -3 -26 -1 -54 5 -66 15 -28 -1 -41 -36 -28 -29 11
-64 4 -140 -30 -22 -10 -57 -23 -78 -30 -35 -11 -41 -10 -63 11 -30 29 -33 69
-3 69 18 0 20 5 17 42 -3 39 -5 42 -32 43 -25 0 -31 5 -38 31 -4 18 -16 34
-25 38 -10 3 -33 17 -52 31 -22 16 -47 25 -71 25 -45 0 -65 21 -73 74 l-6 39
44 -43 c43 -42 46 -43 62 -26 10 9 26 23 37 30 17 12 17 14 2 44 -18 34 -34
40 -55 20 -10 -11 -18 -6 -39 20 -30 36 -42 34 -42 -9 0 -26 -2 -27 -33 -22
-18 3 -51 0 -72 -6 -37 -10 -41 -9 -73 22 -18 17 -35 41 -38 52 -8 32 -85 101
-127 114 -20 7 -42 21 -47 32 -7 12 -21 19 -39 19 -27 0 -29 3 -35 50 -4 28
-9 57 -12 65 -9 23 -33 18 -46 -10 -14 -30 -30 -31 -74 -4 -24 14 -37 32 -44
60 -9 32 -15 39 -35 39 -13 0 -28 -7 -32 -15 -6 -11 -19 -12 -58 -7 -28 5 -65
4 -83 -2 -30 -9 -36 -7 -72 29 -22 22 -40 44 -40 51 0 7 14 24 31 38 24 21 29
30 23 48 -5 13 -7 26 -6 30 3 13 -33 9 -46 -4 -7 -7 -12 -26 -12 -44 0 -47
-20 -57 -115 -59 -74 -2 -85 0 -90 16 -7 22 -57 59 -78 59 -9 0 -24 -12 -35
-27 l-21 -28 -10 28 c-6 16 -11 35 -11 42 0 23 45 47 72 40 21 -5 27 -1 37 22
6 15 11 39 10 53 0 14 5 47 11 74 13 52 3 89 -27 101 -19 7 -63 -15 -77 -38
-16 -26 12 -71 47 -75 l27 -3 -29 -30 c-33 -33 -51 -37 -51 -11 0 15 -17 29
-84 69 -31 18 -41 1 -28 -45 17 -57 15 -82 -6 -82 -12 0 -21 -11 -27 -32 -13
-43 -45 -47 -108 -14 -42 23 -52 24 -94 15 -27 -6 -66 -13 -88 -16 -22 -3 -48
-12 -58 -21 -16 -15 -18 -14 -23 5 -9 33 -58 52 -102 41 -21 -5 -47 -12 -59
-15 -13 -3 -23 -9 -23 -14 0 -14 -26 -10 -40 6 -7 9 -21 13 -31 10 -10 -4 -28
-1 -39 5 -26 14 -63 4 -40 -10 8 -5 12 -12 9 -15 -4 -3 -24 12 -45 33 -37 37
-42 39 -123 45 -50 4 -91 3 -102 -4 -15 -8 -29 -5 -59 12 -34 19 -43 21 -66
10 -21 -9 -44 -8 -118 5 -50 9 -95 22 -101 29 -20 23 -77 45 -90 35 -17 -14
-97 -15 -123 -1 -11 6 -30 24 -42 41 -12 16 -28 30 -35 30 -23 0 -28 20 -9 41
19 21 19 20 -38 62 -29 21 -36 33 -36 59 1 18 -4 45 -10 60 -25 60 -91 12 -78
-56 4 -21 2 -37 -4 -41 -6 -4 -8 -15 -5 -26 5 -14 0 -20 -19 -25 -49 -12 -70
1 -90 57 -17 48 -17 54 -2 64 32 24 12 63 -29 56 -22 -3 -64 -48 -65 -68 0
-14 0 -14 -49 -18 -38 -3 -51 -18 -51 -57 0 -15 -5 -30 -11 -33 -5 -4 -14 -18
-20 -32 -13 -35 -33 -24 -37 20 -3 31 -8 39 -36 51 -19 8 -36 19 -40 24 -4 7
-26 9 -56 5 -32 -4 -55 -1 -64 6 -9 8 -39 11 -73 10 l-58 -2 3 29 c2 16 13 39
24 52 29 30 16 28 -32 -7 -36 -26 -45 -28 -73 -19 -70 22 -72 22 -90 -16 -17
-37 -31 -43 -56 -27 -20 13 -62 -4 -88 -37 l-22 -26 -30 28 c-31 29 -57 30
-81 1 -16 -19 -64 -19 -80 0 -7 8 -25 15 -41 15 -18 0 -32 7 -39 21 -7 13 -19
19 -33 17 -17 -2 -23 -11 -25 -40 -2 -27 -10 -41 -25 -50 -12 -6 -28 -19 -35
-30 -7 -10 -24 -18 -36 -18 -13 0 -26 -6 -29 -13 -3 -7 -25 -19 -48 -26 -24
-7 -68 -26 -97 -42 -52 -29 -55 -30 -80 -13 -24 15 -26 16 -37 0 -12 -15 -13
-15 -19 0 -12 30 4 63 32 66 19 2 27 9 27 23 0 28 -35 33 -42 6 -7 -26 -9 -26
-40 -1 -39 30 -55 25 -92 -30 -33 -49 -35 -50 -54 -33 -13 12 -37 18 -71 19
-28 0 -71 6 -95 13 -38 10 -48 9 -80 -7 -20 -10 -43 -32 -51 -49 -8 -17 -35
-42 -60 -56 -25 -14 -54 -35 -64 -45 -9 -11 -45 -30 -78 -43 -35 -13 -74 -37
-95 -58 -29 -30 -37 -34 -53 -23 -26 16 -42 15 -76 -3 -39 -20 -47 -19 -72 10
-12 14 -27 25 -34 25 -7 0 -21 11 -33 25 -22 28 -43 31 -140 21 -35 -4 -65
-13 -71 -21 -8 -10 -29 -15 -66 -15 -80 0 -161 -17 -175 -38 -24 -34 -58 -62
-76 -62 -10 0 -28 -12 -41 -27 l-23 -26 -99 13 c-54 7 -112 12 -129 11 -16 0
-40 7 -53 15 -13 9 -34 13 -45 10 -12 -3 -79 0 -149 6 -114 10 -130 9 -153 -6
-14 -9 -25 -22 -25 -30 0 -7 -33 -29 -72 -48 -68 -33 -80 -36 -172 -37 -78 -1
-107 -6 -139 -23 -35 -17 -46 -19 -71 -9 -25 9 -37 7 -71 -8 -31 -14 -67 -19
-160 -20 -94 -2 -126 -6 -150 -20 -16 -10 -50 -23 -75 -30 -25 -7 -63 -19 -85
-26 -22 -7 -82 -16 -132 -19 -92 -6 -93 -6 -99 19 -9 35 -25 45 -75 47 -24 0
-55 5 -68 10 -20 7 -29 4 -52 -18 -16 -15 -31 -35 -34 -44 -7 -23 -62 -52 -84
-45 -31 10 -56 44 -43 57 33 33 -6 54 -58 32 -30 -13 -32 -16 -25 -51 9 -50
13 -55 36 -48 16 5 19 1 19 -22 0 -15 -4 -33 -8 -40 -8 -13 -78 -17 -134 -7
-34 6 -39 4 -48 -20 l-10 -26 -37 23 c-33 21 -39 30 -43 70 -7 55 -8 56 -54
64 -32 5 -38 3 -43 -15 -3 -12 -16 -28 -29 -37 -13 -8 -24 -22 -24 -30 0 -8
-8 -15 -18 -15 -23 0 -42 -19 -42 -43 0 -11 16 -37 35 -58 19 -22 35 -47 35
-57 0 -11 9 -27 20 -37 15 -13 20 -31 21 -69 0 -28 4 -73 8 -101 10 -71 -5
-134 -33 -145 -32 -12 -38 -35 -21 -77 19 -45 11 -54 -52 -64 -27 -4 -60 -11
-76 -15 -36 -8 -57 10 -57 50 0 17 -11 53 -25 79 -27 49 -24 78 9 90 16 6 40
72 33 90 -3 7 -22 21 -43 32 -47 23 -147 87 -155 98 -3 5 -9 46 -12 92 -3 46
-13 97 -21 114 -9 16 -16 40 -16 51 0 16 -4 20 -19 15 -11 -3 -35 3 -56 15
-40 22 -65 21 -65 -5 0 -8 -4 -15 -8 -15 -12 0 -32 46 -32 74 0 12 -11 33 -25
46 -14 13 -25 29 -25 35 0 7 -9 23 -19 36 -16 21 -27 24 -70 23 -28 -2 -53 2
-56 7 -4 5 -17 9 -31 9 -26 0 -33 17 -9 26 18 7 20 44 2 44 -13 0 -47 50 -47
70 0 6 -13 25 -29 41 -31 30 -43 26 -53 -17 -7 -27 0 -37 36 -55 16 -8 30 -23
31 -34 2 -11 6 -28 9 -37 5 -10 0 -24 -13 -37 -12 -12 -21 -30 -21 -41 0 -11
-7 -20 -15 -20 -17 0 -20 16 -5 25 16 10 12 24 -15 51 -21 21 -28 23 -46 13
-17 -9 -24 -8 -36 4 -10 9 -12 20 -7 29 13 20 15 124 4 154 -9 22 -7 27 10 31
30 8 24 34 -19 81 -52 59 -139 105 -125 67 4 -8 -1 -26 -10 -40 -15 -23 -15
-29 -1 -80 15 -50 19 -55 44 -55 24 0 30 -5 35 -31 3 -17 3 -35 0 -41 -9 -13
-34 11 -34 33 0 30 -38 24 -46 -6 -4 -16 -13 -25 -25 -25 -21 0 -25 15 -8 26
13 8 3 53 -18 76 -12 14 -19 15 -30 6 -10 -8 -17 -8 -26 4 -39 47 -111 62
-141 29 -10 -11 -25 -17 -33 -14 -12 5 -14 1 -8 -15 3 -12 2 -22 -3 -22 -14 0
-23 43 -12 54 21 21 9 45 -36 71 -44 26 -46 26 -65 9 -23 -21 -30 -16 -22 14
3 12 13 22 22 22 32 0 31 13 -1 40 -26 22 -30 30 -21 42 12 14 7 58 -7 58 -12
0 -40 -36 -40 -52 0 -9 -7 -21 -16 -29 -23 -19 -33 4 -29 70 3 59 -6 81 -35
81 -28 0 -103 37 -125 62 -11 13 -22 41 -25 62 -6 45 -34 71 -50 46 -5 -8 -7
-30 -4 -48 6 -28 2 -38 -25 -64 -17 -17 -31 -35 -31 -40 0 -5 20 -30 44 -56
l44 -47 -14 -54 c-7 -30 -11 -64 -8 -76 3 -13 -3 -38 -16 -60 -12 -21 -17 -41
-12 -44 5 -3 12 -19 16 -36 4 -16 14 -44 23 -62 16 -31 16 -32 -7 -51 l-25
-20 19 -54 c17 -51 17 -57 2 -87 -11 -20 -16 -51 -15 -84 1 -29 -4 -63 -11
-77 -8 -15 -14 -63 -15 -121 0 -60 -6 -103 -13 -112 -11 -13 -13 -41 -12 -164
0 -18 0 -41 -1 -50 -2 -33 18 -91 48 -140 24 -39 37 -50 73 -60 24 -7 55 -24
70 -38 14 -14 31 -25 37 -25 22 0 73 -52 73 -74 0 -26 35 -62 65 -68 13 -2 21
-12 23 -31 2 -16 10 -31 18 -34 8 -3 14 -13 14 -23 0 -29 49 -54 108 -54 28 0
52 -2 52 -4 0 -2 -5 -12 -10 -23 -9 -16 -6 -24 17 -44 15 -13 44 -27 63 -31
19 -4 46 -15 60 -26 14 -10 57 -27 95 -38 39 -11 77 -29 87 -40 9 -12 39 -27
65 -34 68 -20 136 -46 151 -58 9 -8 9 -14 1 -24 -15 -18 11 -29 51 -20 22 4
30 2 30 -9 0 -23 42 -45 87 -45 23 0 45 -4 48 -10 3 -5 22 -10 41 -10 19 0 49
-7 66 -16 17 -9 45 -18 62 -21 17 -3 38 -9 47 -13 8 -5 69 -23 134 -40 103
-26 141 -31 289 -35 94 -3 208 -11 254 -17 65 -9 101 -9 165 2 48 7 200 14
367 16 157 2 312 8 345 14 33 6 130 17 215 25 85 8 209 22 275 30 66 9 140 18
165 20 82 8 205 41 202 55 -2 9 4 10 20 5 32 -11 116 -8 228 10 52 8 121 17
153 20 53 6 73 18 45 27 -28 10 166 31 229 25 37 -4 113 -2 168 4 229 23 321
31 338 29 71 -5 178 7 187 21 5 8 59 18 205 41 39 6 75 14 80 18 6 3 61 7 124
9 63 1 119 5 125 10 6 4 36 9 66 10 30 2 61 6 70 11 19 10 80 19 205 30 55 5
127 15 160 21 33 6 128 13 210 15 83 3 159 9 170 14 22 9 86 15 363 30 108 5
191 14 205 22 33 18 76 18 87 -1 8 -15 10 -14 22 2 9 12 23 18 39 15 19 -2 23
-8 21 -27 -1 -13 -10 -29 -19 -36 -32 -24 -5 -33 89 -28 91 4 148 17 148 34 0
13 -66 22 -87 11 -13 -7 -24 -6 -38 4 -17 12 -10 14 66 14 49 1 101 7 124 16
55 21 145 35 243 39 46 2 89 9 97 15 11 9 27 8 71 -6 46 -14 60 -15 76 -5 14
9 28 9 52 1 17 -5 43 -9 56 -9 14 1 39 -6 55 -15 18 -9 53 -16 89 -16 56 0
109 -11 149 -31 9 -5 59 -12 110 -15 50 -4 103 -13 117 -20 14 -7 60 -17 102
-23 48 -5 84 -15 94 -26 12 -11 25 -14 48 -9 41 8 37 8 69 0 15 -5 27 -12 27
-16 0 -10 162 -30 249 -30 55 0 82 -5 105 -19 22 -14 59 -21 131 -26 123 -8
135 -11 135 -36 0 -21 2 -22 85 -20 34 1 79 -5 104 -13 24 -9 67 -16 95 -16
28 0 78 -4 110 -10 32 -5 118 -12 190 -16 118 -6 135 -9 169 -31 21 -15 37
-34 37 -45 0 -10 22 -40 49 -67 41 -41 58 -50 117 -64 91 -21 313 -31 384 -17
30 6 132 15 225 20 94 5 188 14 210 20 22 5 59 10 82 10 23 0 63 9 89 21 54
23 87 19 122 -14 l23 -21 122 17 c160 23 171 22 191 -8 21 -32 46 -32 74 -1
11 14 38 30 59 36 21 6 47 17 57 25 11 8 36 15 56 15 19 0 68 9 108 20 39 11
90 20 111 20 27 0 43 5 49 17 11 18 68 36 187 57 44 8 127 26 185 40 58 14
119 26 135 26 17 0 75 11 130 25 55 14 111 25 124 25 14 0 59 9 100 19 42 11
121 27 176 36 99 17 230 54 292 82 28 13 34 23 44 71 16 76 23 87 58 102 35
14 32 30 -5 30 -16 0 -24 6 -24 18 0 39 23 52 120 65 52 7 104 18 115 24 12 7
49 10 85 8 41 -3 54 -2 35 3 -35 9 -28 14 38 33 27 8 54 20 60 28 10 12 -4 13
-93 7 -58 -4 -126 -9 -153 -11 -26 -1 -53 -7 -60 -13 -6 -5 -28 -12 -48 -16
-20 -3 -44 -15 -54 -26 -25 -28 -35 -25 -35 10 0 29 1 30 50 30 45 0 50 2 56
26 10 38 -8 50 -53 36 -25 -8 -41 -8 -47 -2 -18 18 16 39 89 56 39 9 93 22
120 29 55 14 171 41 370 85 277 61 335 74 485 111 197 49 600 154 620 162 8 3
35 8 60 12 24 3 52 12 60 20 9 8 47 27 85 42 71 29 91 55 48 61 -42 6 -22 23
65 53 17 6 32 16 32 21 0 19 -291 -13 -319 -36 -8 -6 -41 -14 -75 -17 -81 -8
-283 -55 -374 -86 -40 -13 -84 -23 -99 -21 -19 2 7 14 88 42 63 21 138 49 167
62 113 51 169 72 210 79 23 4 49 13 57 21 22 22 89 43 163 50 64 6 97 19 87
33 -2 4 -30 4 -62 0 -89 -11 -173 -10 -173 2 0 5 17 17 38 25 20 8 44 18 52
23 9 5 31 12 50 16 19 4 40 11 45 16 6 4 29 12 50 17 22 6 67 17 100 26 66 18
130 13 139 -10 7 -18 90 -20 84 -1 -3 6 -13 14 -24 16 -32 6 -46 22 -33 37 6
8 17 14 24 14 20 0 25 26 9 49 -33 46 0 115 37 78 8 -8 26 -18 40 -23 46 -17
162 -154 206 -245 78 -160 82 -194 72 -505 -4 -102 -6 -114 -32 -150 -77 -108
-89 -124 -98 -124 -15 0 -97 -79 -120 -117 -19 -31 -52 -57 -126 -103 -13 -8
-27 -28 -30 -43 -4 -21 -19 -36 -57 -57 -28 -16 -62 -37 -76 -47 -23 -17 -155
-91 -298 -169 -35 -19 -69 -34 -76 -34 -8 0 -24 -8 -37 -19 -13 -10 -87 -44
-164 -75 -77 -32 -151 -63 -165 -71 -14 -7 -41 -18 -60 -23 -19 -6 -84 -29
-145 -52 -209 -78 -481 -163 -675 -210 -69 -17 -172 -44 -230 -60 -176 -48
-218 -58 -420 -100 -107 -22 -235 -49 -285 -60 -49 -12 -160 -34 -245 -51 -85
-16 -223 -43 -306 -59 -140 -27 -257 -47 -409 -70 -33 -5 -127 -20 -210 -33
-82 -14 -231 -37 -330 -52 -99 -15 -200 -31 -225 -35 -25 -4 1115 -8 2533 -9
l2577 -1 0 2830 c0 2828 0 2831 -20 2820 -11 -6 -20 -14 -20 -18 0 -19 -121
-98 -212 -139 -237 -105 -413 -152 -773 -207 -465 -72 -847 -73 -1155 -4 -315
71 -497 124 -525 152 -9 9 -30 16 -46 16 -47 0 -104 35 -138 85 -29 43 -31 52
-31 138 0 104 3 108 97 203 63 65 112 81 276 94 217 17 217 17 305 235 22 55
43 111 47 125 8 32 15 48 63 150 65 138 66 147 40 340 -19 149 -21 177 -9 231
14 69 26 91 89 166 32 36 62 59 103 77 58 25 60 25 201 15 319 -21 595 -11
708 27 93 32 330 74 471 85 160 12 380 1 477 -24 l52 -14 0 1403 0 1404
-10240 0 -10240 0 0 -5095z m15563 4361 c-10 -13 -19 -23 -21 -21 -7 6 19 45
29 45 5 0 2 -11 -8 -24z m-33 -56 c0 -5 -5 -10 -11 -10 -5 0 -7 5 -4 10 3 6 8
10 11 10 2 0 4 -4 4 -10z m-26 -54 c-3 -9 -10 -16 -15 -16 -5 0 -4 9 3 20 14
22 21 20 12 -4z m-43 -69 c-16 -16 -26 0 -10 19 9 11 15 12 17 4 2 -6 -1 -17
-7 -23z m79 -51 c0 -13 -9 -34 -19 -47 -16 -20 -22 -22 -33 -11 -10 10 -9 14
9 18 27 7 38 33 18 40 -22 9 -18 24 5 24 14 0 20 -7 20 -24z m-114 -12 c-3 -9
-6 -18 -6 -20 0 -2 -7 -4 -15 -4 -18 0 -19 12 -3 28 17 17 31 15 24 -4z
m-10571 -70 l-16 -29 7 35 c8 43 18 60 22 39 1 -8 -4 -28 -13 -45z m8572 -48
c4 -4 1 -37 -6 -74 -7 -37 -13 -80 -13 -97 0 -33 -14 -47 -40 -39 -9 3 -35 -4
-57 -16 -40 -20 -116 -27 -137 -12 -14 9 -44 87 -44 113 0 30 42 67 86 75 23
4 50 19 66 36 25 27 32 29 83 25 30 -2 58 -7 62 -11z m2093 0 c0 -16 -18 -31
-27 -22 -8 8 5 36 17 36 5 0 10 -6 10 -14z m-10682 -53 c-5 -25 -28 -28 -28
-4 0 12 6 21 16 21 9 0 14 -7 12 -17z m10480 -29 c16 -11 20 -20 13 -31 -12
-23 -48 -23 -67 -2 -35 39 9 65 54 33z m128 -39 c-4 -19 -11 -33 -17 -30 -10
7 -12 68 -2 79 14 14 25 -14 19 -49z m84 35 c0 -13 -28 -25 -38 -16 -3 4 0 11
8 16 20 13 30 12 30 0z m-10695 -52 c-8 -37 -31 -68 -51 -68 -19 0 -23 22 -8
51 7 15 10 30 6 34 -4 5 -2 5 5 1 6 -3 14 -2 18 4 3 5 13 10 21 10 12 0 14 -7
9 -32z m8905 -78 c0 -5 -9 -10 -21 -10 -11 0 -17 5 -14 10 3 6 13 10 21 10 8
0 14 -4 14 -10z m-8890 -82 c0 -24 -12 -58 -20 -58 -15 0 -22 41 -10 55 15 18
30 19 30 3z m9190 -78 c0 -5 -7 -10 -15 -10 -8 0 -15 5 -15 10 0 6 7 10 15 10
8 0 15 -4 15 -10z m-9195 -72 c-4 -24 -8 -59 -9 -78 -4 -56 -5 -62 -16 -55
-13 8 -13 82 1 90 5 4 9 17 8 28 -3 40 1 57 12 57 8 0 9 -13 4 -42z m10553
-18 c-31 -30 -38 -35 -38 -25 0 9 52 55 61 55 5 0 -5 -13 -23 -30z m-1804
-412 c-17 -56 -54 -107 -54 -75 0 17 25 78 36 90 15 15 25 6 18 -15z m-8521
-58 c-3 -12 -8 -19 -11 -16 -5 6 5 36 12 36 2 0 2 -9 -1 -20z m8457 -99 c0
-19 -23 -35 -34 -24 -7 8 12 43 24 43 6 0 10 -9 10 -19z m-9670 -1576 c15 -28
9 -41 -15 -32 -15 7 -22 57 -7 57 5 0 15 -11 22 -25z m130 -69 c6 -8 18 -12
26 -9 20 7 18 -7 -3 -23 -22 -16 -73 -18 -73 -3 0 16 20 49 29 49 5 0 14 -6
21 -14z m-120 -56 c0 -5 -4 -10 -10 -10 -5 0 -10 5 -10 10 0 6 5 10 10 10 6 0
10 -4 10 -10z m40 -20 c0 -5 -4 -10 -10 -10 -5 0 -10 5 -10 10 0 6 5 10 10 10
6 0 10 -4 10 -10z m-113 -32 c-3 -8 -6 -5 -6 6 -1 11 2 17 5 13 3 -3 4 -12 1
-19z m273 -57 c0 -10 8 -21 18 -25 9 -3 22 -8 28 -11 6 -3 14 3 17 15 3 11 10
20 15 20 6 0 -1 -20 -15 -45 -23 -42 -26 -44 -39 -28 -13 17 -15 17 -29 -1
-14 -19 -15 -18 -15 17 0 33 -3 37 -25 37 -16 0 -25 6 -25 16 0 12 6 15 25 10
14 -4 25 -2 25 4 0 5 5 10 10 10 6 0 10 -8 10 -19z m-180 -25 c0 -3 -4 -8 -10
-11 -5 -3 -10 -1 -10 4 0 6 5 11 10 11 6 0 10 -2 10 -4z m89 -37 c-20 -12 -22
-4 -8 23 12 21 13 21 17 4 2 -10 -2 -22 -9 -27z m191 -49 c0 -5 -4 -10 -10
-10 -5 0 -10 5 -10 10 0 6 5 10 10 10 6 0 10 -4 10 -10z m-342 -119 c3 -8 -1
-12 -9 -9 -7 2 -15 10 -17 17 -3 8 1 12 9 9 7 -2 15 -10 17 -17z m212 -81 c0
-5 -4 -10 -10 -10 -5 0 -10 5 -10 10 0 6 5 10 10 10 6 0 10 -4 10 -10z m440
-40 c0 -4 -6 -13 -14 -19 -17 -14 -31 2 -22 24 5 15 36 10 36 -5z m-655 0 c3
-5 1 -10 -4 -10 -6 0 -11 5 -11 10 0 6 2 10 4 10 3 0 8 -4 11 -10z m823 -1
c-2 -6 -8 -10 -13 -10 -5 0 -11 4 -13 10 -2 6 4 11 13 11 9 0 15 -5 13 -11z
m348 0 c3 -6 14 -9 24 -6 27 7 62 -21 58 -46 -3 -19 -9 -22 -40 -20 l-38 2 7
-44 c4 -36 2 -46 -11 -51 -28 -11 -64 4 -68 29 -2 18 -8 21 -33 19 -16 -2 -45
-4 -64 -5 -25 -2 -36 -8 -42 -25 -10 -26 -21 -28 -55 -5 -22 14 -31 15 -56 5
-17 -6 -34 -9 -38 -7 -15 9 -20 66 -7 85 14 23 65 27 73 6 3 -8 19 -20 35 -26
25 -11 32 -10 48 4 9 9 29 16 43 16 14 0 31 7 38 15 9 11 22 14 46 9 26 -5 35
-2 39 10 3 9 7 23 10 31 5 18 21 20 31 4z m-1053 -19 c-6 -21 -24 -23 -30 -3
-2 6 4 13 14 16 10 3 19 5 20 6 0 0 -1 -8 -4 -19z m-213 -20 c0 -5 -9 -10 -20
-10 -11 0 -20 5 -20 10 0 6 9 10 20 10 11 0 20 -4 20 -10z m494 -9 c3 -4 -4
-17 -15 -26 -18 -17 -21 -17 -35 -3 -9 9 -13 21 -10 27 8 13 53 15 60 2z m292
-24 c12 -11 -8 -47 -26 -47 -10 0 -22 -5 -25 -11 -7 -11 -35 33 -35 55 0 12
75 15 86 3z m85 -34 c-5 -10 -14 -30 -22 -45 -14 -32 -30 -38 -22 -9 3 10 -1
29 -7 41 -7 12 -8 20 -3 17 4 -2 17 -1 28 4 31 12 36 10 26 -8z m-631 -8 c0
-8 -4 -15 -10 -15 -5 0 -10 7 -10 15 0 8 5 15 10 15 6 0 10 -7 10 -15z m124 0
c-7 -16 -24 -21 -24 -6 0 8 7 13 27 20 1 1 0 -6 -3 -14z m136 -10 c0 -17 -8
-21 -63 -29 -32 -4 -38 -2 -35 12 3 12 12 16 31 15 15 -1 27 2 27 8 0 5 9 9
20 9 11 0 20 -7 20 -15z m170 -29 c0 -3 -4 -8 -10 -11 -5 -3 -10 -1 -10 4 0 6
5 11 10 11 6 0 10 -2 10 -4z m510 -16 c0 -5 -5 -10 -11 -10 -5 0 -7 5 -4 10 3
6 8 10 11 10 2 0 4 -4 4 -10z m-556 -6 c9 -3 16 -15 16 -26 0 -22 -15 -16 -30
13 -12 21 -10 22 14 13z m400 -20 c21 -8 20 -30 -1 -38 -21 -8 -38 8 -30 28 7
18 9 18 31 10z m-604 -24 c0 -5 -5 -10 -11 -10 -5 0 -7 5 -4 10 3 6 8 10 11
10 2 0 4 -4 4 -10z m365 -21 c12 -19 -5 -23 -22 -6 -16 16 -16 17 -1 17 9 0
20 -5 23 -11z m420 -11 c-4 -13 -9 -35 -12 -51 -5 -25 -9 -27 -50 -25 -24 1
-49 -4 -55 -10 -18 -18 -78 -15 -78 3 0 18 8 21 72 30 40 5 50 11 67 41 24 41
68 50 56 12z m-825 -3 c0 -8 -4 -15 -10 -15 -5 0 -10 7 -10 15 0 8 5 15 10 15
6 0 10 -7 10 -15z m495 -15 c14 -28 14 -31 -1 -37 -24 -9 -59 34 -43 53 17 21
27 17 44 -16z m525 15 c0 -8 -4 -15 -9 -15 -13 0 -22 16 -14 24 11 11 23 6 23
-9z m-325 -25 c3 -5 -1 -10 -9 -10 -9 0 -16 5 -16 10 0 6 4 10 9 10 6 0 13 -4
16 -10z m12081 -6 c-3 -9 -6 -24 -6 -35 0 -10 -4 -19 -10 -19 -11 0 -14 53 -3
63 12 13 25 7 19 -9z m-12492 -15 c-3 -5 -10 -7 -15 -3 -5 3 -7 10 -3 15 3 5
10 7 15 3 5 -3 7 -10 3 -15z m-239 1 c3 -5 -1 -10 -10 -10 -9 0 -13 5 -10 10
3 6 8 10 10 10 2 0 7 -4 10 -10z m345 0 c0 -5 -6 -10 -14 -10 -8 0 -18 5 -21
10 -3 6 3 10 14 10 12 0 21 -4 21 -10z m200 -15 c7 -8 8 -15 2 -15 -5 0 -15 7
-22 15 -7 8 -8 15 -2 15 5 0 15 -7 22 -15z m504 -41 c6 -10 18 -31 28 -46 29
-44 19 -106 -15 -92 -22 8 -31 39 -18 62 19 36 -27 58 -51 23 -7 -10 -28 -26
-46 -35 -35 -18 -52 -44 -35 -55 6 -3 12 -22 15 -42 3 -31 1 -35 -14 -31 -13
3 -18 14 -18 38 0 19 -4 34 -10 34 -5 0 -10 -4 -10 -10 0 -5 -7 -10 -15 -10
-8 0 -14 3 -14 8 3 20 -3 32 -22 42 -16 9 -24 8 -37 -3 -9 -8 -25 -17 -36 -21
-12 -4 -17 -13 -13 -26 5 -18 -3 -25 -26 -21 -4 0 -16 -8 -28 -20 -14 -14 -24
-18 -31 -11 -16 16 -2 42 22 42 15 0 20 7 20 25 0 14 11 36 24 48 13 12 26 32
30 44 9 29 36 37 51 17 7 -11 26 -17 46 -17 19 0 40 -4 47 -10 13 -10 33 3 95
66 32 31 45 31 61 1z m-354 -4 c0 -5 -4 -10 -10 -10 -5 0 -10 5 -10 10 0 6 5
10 10 10 6 0 10 -4 10 -10z m-185 -70 c3 -5 -1 -10 -9 -10 -9 0 -16 5 -16 10
0 6 4 10 9 10 6 0 13 -4 16 -10z m505 -79 c0 -12 -20 -25 -27 -18 -7 7 6 27
18 27 5 0 9 -4 9 -9z m-400 -77 c0 -9 -7 -14 -17 -12 -25 5 -28 28 -4 28 12 0
21 -6 21 -16z m260 -14 c0 -5 -5 -10 -11 -10 -5 0 -7 5 -4 10 3 6 8 10 11 10
2 0 4 -4 4 -10z m-1405 -320 c3 -5 1 -10 -6 -10 -7 0 -20 -7 -30 -16 -18 -16
-39 -12 -39 7 0 20 64 36 75 19z m-15 -125 c0 -8 -4 -15 -10 -15 -5 0 -10 7
-10 15 0 8 5 15 10 15 6 0 10 -7 10 -15z m308 -47 c-3 -7 -11 -13 -18 -13 -7
0 -15 6 -17 13 -3 7 4 12 17 12 13 0 20 -5 18 -12z m-83 -28 c0 -7 -6 -15 -12
-17 -8 -3 -13 4 -13 17 0 13 5 20 13 18 6 -3 12 -11 12 -18z m-125 -65 c10
-12 10 -15 -4 -15 -9 0 -16 7 -16 15 0 8 2 15 4 15 2 0 9 -7 16 -15z m210 -5
c0 -14 -7 -20 -23 -20 -12 0 -33 -7 -46 -16 -14 -10 -26 -13 -32 -7 -16 16 0
38 34 50 52 17 67 15 67 -7z m-84 -71 c9 -16 -12 -33 -31 -25 -14 5 -15 9 -5
21 15 18 26 19 36 4z m194 -44 c0 -8 -4 -15 -10 -15 -5 0 -10 7 -10 15 0 8 5
15 10 15 6 0 10 -7 10 -15z m-165 -25 c-3 -5 -11 -10 -16 -10 -6 0 -7 5 -4 10
3 6 11 10 16 10 6 0 7 -4 4 -10z m225 -4 c0 -16 -28 -42 -36 -33 -8 7 14 47
26 47 6 0 10 -6 10 -14z m-395 -46 c0 -8 -10 -16 -22 -18 -22 -3 -32 16 -16
32 12 11 38 2 38 -14z m342 -42 c14 -11 93 8 93 22 0 25 28 6 34 -22 5 -27 2
-36 -16 -50 -26 -20 -44 -23 -53 -8 -10 16 -45 12 -45 -5 0 -8 -4 -15 -10 -15
-5 0 -10 5 -10 11 0 18 -28 39 -44 33 -10 -4 -18 1 -22 12 -3 11 -9 26 -14 35
-8 15 -4 15 33 6 23 -5 47 -14 54 -19z m613 -58 c0 -11 -5 -20 -10 -20 -6 0
-20 -9 -32 -20 -12 -11 -31 -20 -42 -20 -17 0 -14 6 19 40 43 44 65 51 65 20z
m-330 -5 c8 -9 21 -13 36 -9 28 7 28 7 13 -35 -12 -34 -38 -41 -59 -16 -15 18
-51 20 -67 4 -7 -7 -19 -8 -30 -4 -10 5 -21 9 -25 9 -22 3 -9 19 17 22 17 2
36 11 42 21 16 23 57 27 73 8z m210 -16 c0 -11 -4 -17 -10 -14 -5 3 -10 13
-10 21 0 8 5 14 10 14 6 0 10 -9 10 -21z m-890 -19 c-6 -11 -15 -20 -20 -20
-16 0 -11 18 8 29 24 14 24 14 12 -9z m1192 -22 c-15 -15 -24 -6 -16 16 5 12
10 14 17 7 8 -8 8 -14 -1 -23z m14143 21 c4 -6 22 -8 44 -4 32 5 40 2 68 -27
54 -55 83 -124 83 -195 0 -86 11 -108 77 -150 81 -51 129 -89 195 -152 78 -74
104 -147 94 -265 -9 -122 -48 -161 -180 -177 -94 -12 -150 0 -233 49 -59 34
-66 42 -108 124 l-45 87 10 77 c10 81 3 110 -42 177 -11 15 -17 27 -13 27 3 0
-7 19 -22 43 -61 91 -103 197 -103 260 0 36 6 48 47 89 40 40 53 48 85 48 20
0 40 -5 43 -11z m-14972 -14 c-3 -9 -8 -14 -10 -11 -3 3 -2 9 2 15 9 16 15 13
8 -4z m437 -11 c0 -9 -7 -14 -17 -12 -25 5 -28 28 -4 28 12 0 21 -6 21 -16z
m210 1 c10 -13 9 -15 -8 -15 -15 0 -20 5 -16 15 4 8 7 15 9 15 1 0 8 -7 15
-15z m-130 -15 c0 -5 -4 -10 -10 -10 -5 0 -10 5 -10 10 0 6 5 10 10 10 6 0 10
-4 10 -10z m-440 -18 c0 -13 -12 -22 -22 -16 -10 6 -1 24 13 24 5 0 9 -4 9 -8z
m160 -2 c0 -5 -5 -10 -11 -10 -5 0 -7 5 -4 10 3 6 8 10 11 10 2 0 4 -4 4 -10z
m464 -16 c9 -3 16 -13 16 -20 0 -17 -47 -37 -67 -30 -19 8 -16 33 5 45 20 12
25 13 46 5z m128 -11 c26 -23 24 -63 -4 -63 -12 0 -37 -5 -55 -12 -28 -10 -36
-10 -49 4 -13 13 -14 19 -2 37 7 11 20 21 29 21 9 0 19 7 23 15 7 20 35 19 58
-2z m96 -6 c2 -12 -3 -17 -17 -17 -15 0 -21 6 -21 21 0 25 33 22 38 -4z m-478
-2 c0 -8 -2 -15 -4 -15 -2 0 -6 7 -10 15 -3 8 -1 15 4 15 6 0 10 -7 10 -15z
m47 -7 c-3 -8 -6 -5 -6 6 -1 11 2 17 5 13 3 -3 4 -12 1 -19z m-298 -4 c3 -3
-2 -11 -11 -20 -14 -14 -17 -14 -32 1 -21 21 -11 38 17 29 12 -3 24 -8 26 -10z
m96 6 c-3 -5 -10 -10 -16 -10 -5 0 -9 5 -9 10 0 6 7 10 16 10 8 0 12 -4 9 -10z
m305 0 c0 -5 -4 -10 -10 -10 -5 0 -10 5 -10 10 0 6 5 10 10 10 6 0 10 -4 10
-10z m-800 -24 c0 -8 -7 -16 -15 -20 -10 -4 -15 1 -15 14 0 11 7 20 15 20 8 0
15 -6 15 -14z m-52 -23 c-4 -22 -22 -20 -26 1 -2 10 3 16 13 16 10 0 15 -7 13
-17z m1222 -3 c0 -13 -48 -36 -56 -27 -4 4 -1 13 6 22 14 17 50 20 50 5z
m-780 -13 c0 -17 -38 -52 -47 -44 -10 11 15 57 32 57 8 0 15 -6 15 -13z m230
-12 c0 -19 -20 -29 -32 -17 -8 8 -7 16 2 26 14 17 30 12 30 -9z m-390 0 c0 -8
-4 -15 -10 -15 -5 0 -7 7 -4 15 4 8 8 15 10 15 2 0 4 -7 4 -15z m529 6 c19
-12 6 -43 -16 -39 -21 4 -31 48 -11 48 7 0 19 -4 27 -9z m-611 -18 c-2 -11
-14 -19 -33 -21 -30 -4 -30 -4 -11 17 23 26 49 28 44 4z m293 -4 c12 -24 -1
-39 -33 -39 -21 0 -21 1 -6 35 14 31 24 32 39 4z m229 11 c0 -5 -4 -10 -10
-10 -5 0 -10 5 -10 10 0 6 5 10 10 10 6 0 10 -4 10 -10z m205 0 c3 -5 -1 -10
-9 -10 -9 0 -16 5 -16 10 0 6 4 10 9 10 6 0 13 -4 16 -10z m-1007 -21 c-2 -6
-8 -10 -13 -10 -5 0 -11 4 -13 10 -2 6 4 11 13 11 9 0 15 -5 13 -11z m1230 -5
c25 -7 11 -31 -28 -49 -22 -10 -40 -21 -40 -25 0 -4 -16 -20 -36 -35 -34 -26
-36 -26 -55 -9 -18 16 -19 16 -19 -8 0 -14 -13 -36 -30 -53 -33 -32 -39 -28
-14 11 11 16 15 36 11 58 -7 41 1 51 22 32 11 -10 23 -11 40 -5 19 8 22 14 18
37 -5 23 -1 31 21 43 24 14 70 16 110 3z m-787 -13 l24 -19 -29 -11 c-24 -10
-31 -9 -42 6 -15 21 -17 27 -7 36 11 12 30 8 54 -12z m583 -23 c-6 -9 -44 -11
-44 -2 0 4 8 13 17 20 18 13 38 0 27 -18z m-664 -24 c0 -16 -18 -18 -39 -5
-12 8 -13 12 -2 25 11 12 17 14 27 5 8 -6 14 -18 14 -25z m313 -25 c-12 -12
-26 -18 -32 -15 -15 9 -4 25 23 36 30 11 33 3 9 -21z m-217 -10 c3 -6 0 -15
-7 -20 -22 -14 -29 -11 -29 11 0 21 24 27 36 9z m-456 -9 c0 -5 -5 -10 -11
-10 -5 0 -7 5 -4 10 3 6 8 10 11 10 2 0 4 -4 4 -10z m1385 -29 c3 -5 1 -12 -5
-16 -5 -3 -10 1 -10 9 0 18 6 21 15 7z m-657 -17 c26 -18 28 -32 7 -40 -13 -5
-65 36 -65 52 0 10 37 3 58 -12z m-188 -24 c0 -5 -7 -10 -16 -10 -8 0 -12 5
-9 10 3 6 10 10 16 10 5 0 9 -4 9 -10z m780 -26 c0 -8 -2 -14 -4 -14 -2 0 -11
-3 -20 -6 -11 -4 -16 0 -16 14 0 20 18 33 33 25 4 -2 7 -11 7 -19z m-162 -5
c2 -11 -8 -20 -27 -27 -17 -6 -31 -16 -31 -21 0 -6 -4 -11 -10 -11 -5 0 -10 7
-10 15 0 8 4 15 8 15 5 0 14 12 21 26 12 28 44 30 49 3z m-589 -12 c8 -10 4
-19 -19 -36 -24 -17 -30 -19 -30 -6 0 8 5 15 10 15 6 0 10 9 10 20 0 23 13 26
29 7z m669 -10 c2 -11 -3 -17 -17 -17 -23 0 -35 15 -26 31 10 15 39 6 43 -14z
m-341 -2 c3 -9 3 -19 -1 -22 -9 -10 -58 16 -51 27 10 16 45 12 52 -5z m-769
-7 c-6 -18 -28 -21 -28 -4 0 9 7 16 16 16 9 0 14 -5 12 -12z m488 -15 c-10
-10 -19 5 -10 18 6 11 8 11 12 0 2 -7 1 -15 -2 -18z m-580 -10 c-10 -10 -19 5
-10 18 6 11 8 11 12 0 2 -7 1 -15 -2 -18z m424 17 c0 -5 -2 -10 -4 -10 -3 0
-8 5 -11 10 -3 6 -1 10 4 10 6 0 11 -4 11 -10z m580 1 c0 -12 -20 -25 -27 -18
-7 7 6 27 18 27 5 0 9 -4 9 -9z m84 -77 c21 -8 20 -40 -1 -48 -23 -9 -45 29
-26 47 8 8 8 8 27 1z m-214 -24 c0 -5 -2 -10 -4 -10 -3 0 -8 5 -11 10 -3 6 -1
10 4 10 6 0 11 -4 11 -10z m-52 -32 c-3 -7 -11 -13 -18 -13 -7 0 -15 6 -17 13
-3 7 4 12 17 12 13 0 20 -5 18 -12z m410 -39 c-2 -6 -8 -10 -13 -10 -5 0 -11
4 -13 10 -2 6 4 11 13 11 9 0 15 -5 13 -11z m-987 -94 c0 -13 -41 -19 -41 -7
0 11 20 22 33 18 5 -1 8 -6 8 -11z m13580 -56 c203 -49 681 -204 912 -295 137
-54 339 -152 364 -177 10 -9 -62 -12 -320 -12 -283 -1 -478 -9 -964 -39 -59
-3 -62 -3 -68 23 -4 14 -10 82 -14 151 -8 134 -22 179 -64 201 -12 7 -34 22
-50 35 -16 14 -34 21 -45 17 -16 -5 -16 -4 1 13 12 13 32 19 60 19 39 0 42 2
45 30 5 38 31 68 51 59 9 -3 50 -14 92 -25z m-12636 2 c3 -5 19 -12 35 -16 17
-4 30 -8 30 -11 0 -8 -35 -44 -42 -44 -9 0 -48 60 -48 73 0 10 18 9 25 -2z
m-430 -11 c-3 -5 -15 -10 -26 -10 -11 0 -17 5 -14 10 3 6 15 10 26 10 11 0 17
-4 14 -10z m-315 -53 c0 -20 -1 -20 -16 -5 -9 9 -13 21 -9 27 10 16 25 3 25
-22z m182 -24 c0 -10 1 -24 1 -30 -1 -7 7 -13 17 -13 10 0 28 -16 40 -34 22
-36 61 -58 68 -37 5 14 49 14 54 0 2 -6 25 -13 51 -15 40 -3 47 -1 47 15 0 20
43 65 53 54 13 -13 7 -31 -13 -36 -26 -7 -26 -38 0 -60 18 -15 27 -16 61 -7
41 11 54 8 54 -13 0 -7 18 -20 39 -30 43 -20 86 -16 86 9 0 13 6 15 27 9 41
-10 55 -45 19 -45 -8 0 -16 -9 -19 -20 -6 -22 -51 -28 -63 -9 -4 7 -10 7 -16
1 -13 -13 7 -44 44 -65 25 -14 28 -20 18 -32 -17 -21 -25 -19 -38 10 -7 14
-20 25 -31 25 -30 0 -52 28 -45 56 7 29 -14 32 -51 8 -23 -15 -27 -15 -62 7
-21 12 -48 31 -60 42 -24 21 -55 24 -114 12 -30 -6 -40 -3 -64 19 -32 30 -45
33 -45 11 0 -8 -4 -15 -10 -15 -5 0 -10 11 -10 24 0 14 -5 28 -10 31 -6 4 -8
11 -5 16 4 5 -3 9 -14 9 -12 0 -21 -5 -21 -10 0 -6 -8 -5 -20 2 -24 15 -25 31
-4 53 13 12 14 19 4 30 -7 8 -10 22 -6 30 8 21 36 19 38 -2z m-95 -19 c3 -8 1
-20 -6 -27 -6 -6 -11 -20 -11 -31 0 -18 -1 -19 -20 -1 -24 22 -25 29 -3 55 21
24 32 25 40 4z m-147 -46 c0 -16 -3 -19 -11 -11 -6 6 -8 16 -5 22 11 17 16 13
16 -11z m734 -44 c4 -9 4 -19 2 -21 -8 -8 -26 8 -26 23 0 19 16 18 24 -2z
m176 -8 c0 -3 -4 -8 -10 -11 -5 -3 -10 -1 -10 4 0 6 5 11 10 11 6 0 10 -2 10
-4z m25 -106 c3 -5 15 -10 25 -10 19 0 36 -32 25 -50 -9 -15 -45 -12 -45 4 0
7 -7 19 -15 26 -17 14 -20 40 -6 40 6 0 13 -4 16 -10z m-10 -100 c-3 -5 -11
-10 -16 -10 -6 0 -7 5 -4 10 3 6 11 10 16 10 6 0 7 -4 4 -10z m-1360 -460 c-3
-5 -13 -10 -21 -10 -8 0 -14 5 -14 10 0 6 9 10 21 10 11 0 17 -4 14 -10z m96
-53 c-5 -5 -15 3 -24 22 -10 21 -12 31 -4 34 16 5 40 -44 28 -56z m7555 6
c-10 -10 -19 5 -10 18 6 11 8 11 12 0 2 -7 1 -15 -2 -18z m-7658 6 c-2 -6 -8
-10 -13 -10 -5 0 -11 4 -13 10 -2 6 4 11 13 11 9 0 15 -5 13 -11z m120 -78
c26 -22 28 -31 7 -31 -19 0 -56 31 -49 42 8 12 16 9 42 -11z m557 9 c3 -5 18
-10 33 -11 22 -1 20 -3 -12 -10 -41 -10 -64 0 -52 20 9 14 23 14 31 1z m-468
-18 c10 -6 10 -12 -1 -28 -17 -23 -41 -8 -30 19 7 19 13 20 31 9z m-63 -48
c20 -8 11 -24 -14 -24 -13 0 -17 5 -14 15 7 17 7 17 28 9z m260 -35 c-8 -13
-24 -1 -24 18 0 13 3 13 15 3 8 -7 12 -16 9 -21z m76 -34 c0 -16 -6 -25 -15
-25 -16 0 -19 9 -9 34 9 25 24 19 24 -9z m-60 0 c0 -8 -7 -15 -15 -15 -8 0
-15 7 -15 15 0 8 7 15 15 15 8 0 15 -7 15 -15z m-190 -15 c0 -5 -4 -10 -10
-10 -5 0 -10 5 -10 10 0 6 5 10 10 10 6 0 10 -4 10 -10z m8331 -23 c-1 -12
-15 -9 -19 4 -3 6 1 10 8 8 6 -3 11 -8 11 -12z m303 -12 c-7 -17 -20 -20 -28
-6 -7 10 3 21 20 21 8 0 11 -6 8 -15z m-8684 -10 c0 -9 -9 -15 -21 -15 -18 0
-19 2 -9 15 7 8 16 15 21 15 5 0 9 -7 9 -15z m373 -35 c7 -34 -8 -86 -28 -94
-25 -9 -27 13 -4 45 20 29 21 32 5 41 -13 8 -15 13 -5 24 17 21 26 17 32 -16z
m8807 15 c0 -8 -4 -15 -10 -15 -5 0 -10 7 -10 15 0 8 5 15 10 15 6 0 10 -7 10
-15z m5815 5 c-3 -5 -15 -10 -26 -10 -11 0 -17 5 -14 10 3 6 15 10 26 10 11 0
17 -4 14 -10z m-14725 -39 c0 -23 -16 -36 -25 -21 -9 14 1 40 15 40 5 0 10 -9
10 -19z m9500 -35 c0 -13 -6 -29 -14 -35 -11 -10 -16 -8 -21 9 -7 21 9 50 26
50 5 0 9 -11 9 -24z m5068 12 c-3 -7 -13 -15 -24 -17 -10 -1 -26 -9 -34 -16
-8 -7 -35 -20 -60 -28 -25 -9 -65 -25 -90 -36 -47 -22 -100 -28 -100 -11 0 12
34 31 75 41 16 4 73 23 125 42 111 40 113 41 108 25z m-14994 -33 c-4 -8 -10
-15 -15 -15 -5 0 -9 7 -9 15 0 8 7 15 15 15 9 0 12 -6 9 -15z m14761 5 c-3 -5
-10 -10 -16 -10 -5 0 -9 5 -9 10 0 6 7 10 16 10 8 0 12 -4 9 -10z m521 -19
c-22 -23 -38 -29 -85 -34 -59 -5 -133 -36 -163 -67 -10 -10 -39 -21 -70 -25
-29 -3 -66 -9 -83 -12 -26 -5 -28 -4 -16 11 7 9 21 16 30 16 10 0 26 7 37 15
10 8 26 15 34 15 8 0 29 7 45 16 102 53 211 90 274 93 l25 1 -28 -29z m-15076
9 c0 -5 -9 -10 -20 -10 -11 0 -20 5 -20 10 0 6 9 10 20 10 11 0 20 -4 20 -10z
m492 -12 c-7 -7 -12 -8 -12 -2 0 14 12 26 19 19 2 -3 -1 -11 -7 -17z m179 -51
c-16 -16 -26 0 -10 19 9 11 15 12 17 4 2 -6 -1 -17 -7 -23z m14589 25 c25 -4
41 -10 35 -13 -5 -4 -66 -25 -135 -46 -131 -42 -230 -61 -230 -44 0 10 150 86
200 101 31 10 72 11 130 2z m-952 -19 c-3 -16 -99 -72 -125 -73 -7 0 -23 5
-37 11 l-25 12 37 20 c42 23 108 45 135 46 12 1 17 -5 15 -16z m-14518 -3 c0
-5 -4 -10 -10 -10 -5 0 -10 5 -10 10 0 6 5 10 10 10 6 0 10 -4 10 -10z m820
-50 c9 -16 8 -20 -5 -20 -8 0 -15 9 -15 20 0 11 2 20 5 20 2 0 9 -9 15 -20z
m175 10 c-3 -5 -15 -10 -26 -10 -11 0 -17 5 -14 10 3 6 15 10 26 10 11 0 17
-4 14 -10z m10968 -7 c-12 -8 -32 -24 -45 -34 -27 -24 -71 -22 -76 4 -6 31 14
42 79 43 58 1 61 0 42 -13z m-11623 -28 c0 -8 -9 -15 -20 -15 -20 0 -26 11
-13 23 12 13 33 7 33 -8z m14005 6 c6 -11 -26 -17 -120 -25 -42 -3 -51 -2 -30
3 17 5 41 13 55 19 32 14 87 15 95 3z m-13614 -38 c-10 -17 -10 -16 -11 3 0
23 13 41 18 25 2 -6 -1 -18 -7 -28z m-765 -13 c2 0 4 -7 4 -15 0 -17 -16 -20
-25 -5 -3 6 -19 10 -36 10 -17 0 -29 5 -29 13 0 24 12 27 47 12 20 -8 37 -15
39 -15z m1034 20 c0 -5 -2 -10 -4 -10 -3 0 -8 5 -11 10 -3 6 -1 10 4 10 6 0
11 -4 11 -10z m14217 4 c-3 -3 -12 -4 -19 -1 -8 3 -5 6 6 6 11 1 17 -2 13 -5z
m-14305 -46 c-7 -7 -12 -8 -12 -2 0 14 12 26 19 19 2 -3 -1 -11 -7 -17z m-972
-55 c0 -20 -24 -11 -28 10 -2 12 1 15 12 11 9 -3 16 -13 16 -21z m120 17 c0
-5 -4 -10 -10 -10 -5 0 -10 5 -10 10 0 6 5 10 10 10 6 0 10 -4 10 -10z m510
-6 c0 -8 -4 -12 -10 -9 -5 3 -10 10 -10 16 0 5 5 9 10 9 6 0 10 -7 10 -16z
m345 -13 c3 -5 1 -12 -5 -16 -5 -3 -10 1 -10 9 0 18 6 21 15 7z m-632 -57 c7
-7 -32 -74 -44 -74 -5 0 -9 -4 -9 -10 0 -5 7 -10 15 -10 14 0 17 -5 19 -40 1
-8 8 -15 16 -15 8 0 14 6 12 13 -4 19 27 74 38 67 6 -4 10 -22 10 -42 0 -27
-5 -36 -20 -40 -16 -4 -18 -8 -9 -20 10 -11 8 -15 -8 -19 -18 -5 -21 -13 -20
-50 0 -46 6 -51 39 -33 11 6 22 8 26 5 9 -10 -20 -56 -31 -49 -5 3 -22 6 -36
7 -18 1 -26 7 -26 18 0 10 -4 17 -10 15 -5 -1 -9 -8 -8 -16 2 -22 -15 -61 -28
-61 -8 0 -9 11 -5 31 3 18 1 37 -4 44 -15 18 -1 47 20 40 21 -7 47 20 30 30
-6 4 -18 4 -26 1 -18 -7 -48 19 -39 34 3 5 16 10 27 10 12 0 18 3 15 7 -4 3
-2 12 5 20 9 11 8 18 -4 30 -16 15 -43 10 -33 -7 7 -11 -43 -45 -53 -36 -3 4
-1 10 5 14 7 4 11 21 10 37 -2 27 1 30 30 33 21 2 34 10 38 23 4 10 11 19 16
19 5 0 9 7 9 15 0 15 21 21 33 9z m867 -14 c0 -23 -31 -27 -49 -7 -14 17 -4
27 26 27 16 0 23 -6 23 -20z m-1133 -9 c10 -16 9 -20 -8 -24 -12 -3 -17 -11
-13 -21 8 -21 -1 -20 -26 1 -24 21 -25 27 -4 47 21 21 37 20 51 -3z m488 9 c3
-6 17 -7 31 -4 38 10 29 -14 -13 -31 -37 -16 -52 -10 -53 21 0 22 24 32 35 14z
m425 0 c0 -5 -5 -10 -11 -10 -5 0 -7 5 -4 10 3 6 8 10 11 10 2 0 4 -4 4 -10z
m9765 -20 c3 -5 1 -10 -4 -10 -6 0 -11 5 -11 10 0 6 2 10 4 10 3 0 8 -4 11
-10z m-9360 -60 c7 -23 -1 -40 -19 -40 -20 0 -39 27 -32 45 8 22 44 18 51 -5z
m-795 -15 c0 -8 -7 -15 -15 -15 -8 0 -15 7 -15 15 0 8 7 15 15 15 8 0 15 -7
15 -15z m288 -16 c-2 -6 -8 -10 -13 -10 -5 0 -11 4 -13 10 -2 6 4 11 13 11 9
0 15 -5 13 -11z m-322 -47 c-2 -4 11 -8 29 -8 19 0 37 -3 41 -6 11 -12 -7 -28
-31 -28 -13 0 -27 -4 -30 -10 -3 -5 -22 -10 -41 -10 -41 0 -46 21 -9 38 14 6
25 16 25 22 0 5 5 10 11 10 5 0 8 -4 5 -8z m-358 -44 c-6 -18 -28 -21 -28 -4
0 9 7 16 16 16 9 0 14 -5 12 -12z m662 -4 c0 -8 -5 -12 -10 -9 -6 4 -8 11 -5
16 9 14 15 11 15 -7z m140 -4 c0 -5 -4 -10 -10 -10 -5 0 -10 5 -10 10 0 6 5
10 10 10 6 0 10 -4 10 -10z m-240 -26 c0 -8 -4 -14 -10 -14 -5 0 -10 -7 -10
-15 0 -8 -7 -15 -15 -15 -19 0 -19 15 1 45 17 25 34 25 34 -1z m-149 -27 c-1
-4 -1 -14 -1 -22 0 -10 -7 -15 -17 -13 -15 2 -18 -4 -18 -34 0 -20 -3 -40 -7
-44 -5 -4 -8 3 -8 15 0 29 -30 25 -46 -7 -16 -33 -22 -36 -39 -22 -19 16 -19
30 -1 30 7 0 16 9 19 20 3 11 12 20 20 20 9 0 17 10 19 23 2 16 9 21 26 19 13
-2 25 3 28 13 6 15 26 17 25 2z m44 3 c3 -5 2 -10 -4 -10 -5 0 -13 5 -16 10
-3 6 -2 10 4 10 5 0 13 -4 16 -10z m-548 -82 c-3 -8 -6 -5 -6 6 -1 11 2 17 5
13 3 -3 4 -12 1 -19z m263 8 c0 -8 3 -21 6 -30 4 -12 0 -16 -15 -16 -15 0 -21
6 -21 23 0 13 3 27 7 30 11 12 23 8 23 -7z m600 -1 c0 -8 5 -15 10 -15 6 0 10
-9 10 -20 0 -11 -4 -20 -10 -20 -5 0 -10 9 -10 19 0 11 -4 23 -10 26 -5 3 -10
10 -10 16 0 5 5 9 10 9 6 0 10 -7 10 -15z m10078 -13 c2 -14 -2 -22 -12 -22
-19 0 -29 17 -22 36 8 22 30 12 34 -14z m-9980 -16 c3 -12 -1 -17 -10 -14 -7
3 -15 13 -16 22 -3 12 1 17 10 14 7 -3 15 -13 16 -22z m-887 -58 c8 -14 6 -18
-9 -18 -10 0 -27 6 -37 14 -16 12 -17 16 -6 30 15 18 33 9 52 -26z m249 -33
c0 -8 -4 -15 -10 -15 -5 0 -7 7 -4 15 4 8 8 15 10 15 2 0 4 -7 4 -15z m118
-22 c-5 -25 -28 -28 -28 -4 0 12 6 21 16 21 9 0 14 -7 12 -17z m-218 -3 c0 -5
-4 -10 -10 -10 -5 0 -10 5 -10 10 0 6 5 10 10 10 6 0 10 -4 10 -10z m-80 -10
c0 -5 -7 -10 -15 -10 -8 0 -15 5 -15 10 0 6 7 10 15 10 8 0 15 -4 15 -10z
m140 1 c0 -6 -4 -13 -10 -16 -5 -3 -10 1 -10 9 0 9 5 16 10 16 6 0 10 -4 10
-9z m11324 -50 c25 -27 11 -80 -24 -98 -22 -11 -24 -18 -26 -97 -2 -81 -4 -88
-46 -157 -44 -71 -68 -95 -68 -66 0 8 -7 21 -16 28 -12 10 -14 23 -10 52 6 33
3 41 -18 58 -16 13 -26 32 -29 61 -3 24 -8 55 -12 69 -6 24 -3 28 37 40 41 13
43 16 42 52 -1 38 2 40 46 38 18 -2 32 7 48 29 25 33 40 31 76 -9z m-10584 9
c0 -5 -4 -10 -10 -10 -5 0 -10 5 -10 10 0 6 5 10 10 10 6 0 10 -4 10 -10z
m-519 -53 c-1 -12 -15 -9 -19 4 -3 6 1 10 8 8 6 -3 11 -8 11 -12z m-91 -27 c0
-5 -7 -10 -15 -10 -8 0 -15 5 -15 10 0 6 7 10 15 10 8 0 15 -4 15 -10z m41
-24 c-6 -8 -10 -19 -9 -26 2 -7 -3 -15 -9 -17 -20 -7 -15 28 5 43 22 17 27 17
13 0z m199 -31 c0 -16 -6 -25 -15 -25 -9 0 -20 -10 -25 -22 -8 -22 -10 -20
-14 22 -2 19 23 50 41 50 7 0 13 -11 13 -25z m-450 -13 c0 -13 -12 -22 -22
-16 -10 6 -1 24 13 24 5 0 9 -4 9 -8z m665 -12 c3 -5 2 -17 -3 -26 -8 -14 -10
-14 -25 1 -10 9 -15 21 -12 26 8 12 32 12 40 -1z m-328 -56 c4 -12 -46 -38
-55 -29 -3 2 3 14 13 25 19 21 36 22 42 4z m206 -19 c-5 -13 -23 -22 -23 -11
0 15 14 35 21 31 4 -3 6 -12 2 -20z m357 10 c10 -13 9 -15 -8 -15 -22 0 -36
13 -25 24 10 10 20 7 33 -9z m-430 -85 c0 -5 -2 -10 -4 -10 -3 0 -8 5 -11 10
-3 6 -1 10 4 10 6 0 11 -4 11 -10z m560 -100 c0 -5 -4 -10 -10 -10 -5 0 -10 5
-10 10 0 6 5 10 10 10 6 0 10 -4 10 -10z m370 -45 c10 -12 10 -21 1 -38 -6
-12 -10 -38 -9 -57 3 -31 0 -35 -22 -35 -17 0 -29 8 -38 29 -13 26 -12 31 7
55 12 14 24 34 28 44 7 21 17 22 33 2z m-575 -5 c3 -5 1 -10 -4 -10 -6 0 -11
5 -11 10 0 6 2 10 4 10 3 0 8 -4 11 -10z m10310 -40 c20 -32 -51 -88 -78 -61
-8 8 -3 18 23 41 38 32 46 35 55 20z"/>
<path d="M15175 1160 c-3 -5 1 -10 10 -10 9 0 13 5 10 10 -3 6 -8 10 -10 10
-2 0 -7 -4 -10 -10z"/>
<path d="M9832 8343 c-25 -26 -73 -66 -107 -89 -108 -73 -66 -105 115 -86 104
11 155 30 165 61 7 23 -21 125 -38 139 -7 5 -29 13 -51 16 -36 7 -41 5 -84
-41z"/>
<path d="M7757 8133 c-31 -31 54 -113 116 -113 58 0 60 64 3 99 -32 20 -105
29 -119 14z"/>
<path d="M15853 7506 c-50 -45 -58 -90 -22 -122 17 -15 38 -18 140 -19 131 0
124 -4 119 70 -2 46 -24 104 -39 106 -6 1 -44 2 -83 3 -72 1 -74 1 -115 -38z"/>
<path d="M15775 7451 c-3 -5 -1 -12 5 -16 5 -3 10 1 10 9 0 18 -6 21 -15 7z"/>
<path d="M6560 7380 c0 -5 7 -10 15 -10 8 0 15 5 15 10 0 6 -7 10 -15 10 -8 0
-15 -4 -15 -10z"/>
<path d="M10364 7275 c-4 -8 -1 -22 6 -30 11 -13 9 -20 -11 -41 -13 -15 -34
-30 -46 -35 -17 -6 -23 -17 -23 -40 0 -30 -1 -31 -32 -25 -18 3 -57 18 -85 33
-49 25 -56 26 -95 15 -24 -7 -59 -17 -78 -21 -19 -5 -52 -16 -72 -25 -31 -13
-73 -16 -250 -14 -170 1 -218 -1 -238 -13 -20 -11 -75 -14 -255 -16 -126 0
-248 -6 -270 -12 -62 -16 -100 -13 -121 10 -32 35 -50 40 -100 27 -30 -8 -50
-20 -56 -34 -9 -18 -24 -23 -109 -33 -55 -6 -114 -11 -133 -11 -18 0 -56 -7
-84 -15 -46 -14 -55 -14 -81 -1 -16 9 -46 18 -68 22 -34 5 -40 3 -49 -16 -11
-24 -38 -28 -259 -33 -60 -2 -118 -7 -128 -11 -10 -5 -35 -6 -55 -4 -42 6
-149 -5 -232 -23 -30 -6 -76 -11 -101 -10 -31 1 -50 -4 -59 -14 -16 -20 -74
-19 -105 1 -31 20 -80 6 -120 -36 -28 -29 -29 -29 -139 -29 -147 0 -176 -4
-222 -33 -21 -13 -60 -32 -86 -42 -26 -10 -50 -21 -53 -26 -3 -4 -33 -6 -67
-5 -71 3 -101 -1 -243 -39 -125 -33 -173 -54 -180 -77 -6 -17 -33 -29 -97 -43
-15 -4 -35 -15 -45 -25 -10 -10 -35 -21 -55 -24 -61 -9 -229 -106 -254 -147
-12 -19 -31 -44 -42 -55 -47 -47 -65 -93 -63 -162 1 -63 3 -67 46 -115 46 -51
58 -91 30 -102 -11 -4 -15 -20 -15 -56 0 -61 12 -88 46 -100 28 -11 31 -35 7
-49 -15 -8 -16 -13 -5 -30 6 -12 12 -45 12 -76 0 -44 -4 -56 -20 -65 -14 -7
-20 -21 -20 -45 0 -18 -8 -47 -17 -64 -17 -30 -17 -32 0 -62 21 -37 22 -75 2
-122 -14 -33 -13 -38 16 -97 17 -34 38 -64 45 -67 8 -3 14 -13 14 -22 0 -20
16 -48 54 -96 18 -22 32 -54 35 -79 5 -37 11 -43 51 -63 60 -29 84 -29 108 4
l19 27 12 -22 c13 -24 52 -30 69 -9 6 6 13 23 17 37 3 14 14 36 24 49 l18 24
47 -23 46 -24 23 22 c13 12 30 22 38 22 8 0 19 4 25 10 6 6 19 4 38 -5 39 -20
57 -19 63 5 4 16 14 20 52 22 25 0 56 0 68 -1 30 -2 63 16 63 34 0 8 8 15 18
15 9 0 29 14 44 32 l27 33 22 -24 c21 -23 23 -23 36 -5 18 25 12 38 -22 44
-38 7 -65 51 -46 74 7 9 25 16 40 16 15 0 37 7 50 16 31 22 49 4 27 -27 -24
-34 -20 -46 22 -73 34 -22 39 -22 55 -8 9 8 17 25 17 38 0 13 5 26 10 29 17
10 11 25 -9 25 -10 0 -21 7 -25 15 -6 17 5 18 54 9 24 -5 36 -15 46 -41 8 -19
26 -38 39 -43 26 -10 77 -59 108 -104 10 -14 24 -26 32 -26 7 0 15 -12 17 -27
2 -20 9 -28 23 -28 15 0 21 9 26 37 3 20 11 44 18 52 8 10 9 16 1 21 -13 8
-13 52 -1 60 13 7 34 -33 27 -51 -8 -22 32 -41 100 -48 53 -5 64 -3 80 15 17
19 24 75 14 109 -4 11 1 14 15 12 36 -7 100 -1 103 8 6 17 72 51 84 44 18 -11
118 -14 118 -4 0 13 54 40 79 40 12 0 28 16 45 45 25 41 30 45 66 45 21 0 50
-5 64 -11 34 -16 54 1 58 49 l3 37 55 -1 c30 -1 82 -6 115 -10 48 -7 60 -13
63 -29 7 -36 20 -44 55 -34 18 5 34 14 35 19 2 6 16 10 30 10 18 0 43 14 71
41 40 36 47 39 67 28 12 -6 27 -8 33 -4 7 4 19 1 28 -7 9 -7 40 -14 70 -15 46
-2 54 0 51 15 -2 9 -10 17 -18 17 -39 1 -55 35 -17 35 13 0 43 13 68 29 39 25
56 29 150 35 l106 6 49 -35 c27 -19 57 -35 67 -35 14 0 17 -5 12 -19 -3 -11
-3 -31 1 -45 11 -47 71 -45 80 4 4 16 18 34 36 44 16 10 34 29 40 42 6 14 23
28 37 32 47 13 125 7 153 -12 16 -10 35 -16 43 -12 9 3 19 -3 26 -17 7 -12 24
-37 38 -54 22 -27 32 -32 64 -31 42 1 54 12 38 32 -7 8 -9 35 -5 72 5 48 3 62
-10 73 -19 16 -21 41 -3 41 7 0 22 -7 34 -15 12 -9 42 -16 67 -17 40 -2 47 -6
56 -31 5 -16 14 -26 20 -22 10 6 50 -74 50 -100 0 -28 28 -44 62 -34 17 5 36
13 42 19 23 23 35 10 18 -19 -13 -23 -14 -32 -4 -44 16 -19 46 -27 63 -16 11
7 11 14 -4 39 -20 33 -16 50 14 50 18 0 23 10 20 36 -1 13 80 99 109 114 28
15 70 13 70 -5 0 -28 48 -123 68 -134 12 -6 32 -11 46 -11 27 0 60 26 50 41
-3 6 2 22 11 36 13 19 19 22 25 13 4 -7 17 -10 28 -8 14 4 29 -4 49 -24 20
-21 34 -27 50 -23 17 4 32 -5 62 -35 22 -22 45 -40 52 -40 7 0 21 -7 31 -17
17 -15 18 -15 18 6 0 13 -9 34 -20 48 -38 48 -21 95 43 122 58 25 71 42 56 75
-14 30 1 56 32 56 26 0 25 -52 -2 -96 l-20 -33 20 -20 c14 -14 20 -31 18 -57
-2 -29 3 -40 25 -57 l27 -20 21 26 c12 15 28 27 36 27 9 0 14 10 14 28 0 31
-16 52 -40 52 -20 0 -45 43 -36 59 4 6 23 11 41 11 19 0 53 7 75 16 32 13 43
14 55 4 21 -18 45 4 45 41 0 36 24 49 93 49 69 0 112 -15 162 -55 32 -26 45
-31 59 -23 11 6 22 6 31 -2 10 -8 39 -10 97 -5 110 9 127 -3 135 -93 4 -43 10
-62 19 -62 16 0 17 10 5 44 -12 29 -1 40 48 50 22 4 50 0 77 -10 39 -15 43
-20 49 -60 3 -24 4 -48 1 -53 -9 -14 22 -21 36 -8 40 38 67 47 120 39 43 -6
55 -12 68 -35 13 -23 13 -29 1 -36 -10 -7 -40 -70 -41 -88 0 -2 11 -3 24 -3
26 0 81 -22 109 -44 14 -11 16 -22 11 -53 -5 -35 -3 -41 15 -46 12 -3 21 -12
21 -21 0 -9 3 -16 8 -17 82 -7 136 9 146 45 3 11 6 42 6 69 0 42 3 49 25 57
14 5 36 22 49 37 28 32 56 26 56 -12 0 -23 3 -25 23 -19 49 17 71 11 77 -21 4
-22 11 -31 29 -33 18 -3 22 0 18 12 -5 13 -2 15 17 10 14 -3 34 1 48 9 12 8
34 18 48 22 67 19 132 58 152 91 21 36 36 42 56 22 19 -19 14 -45 -13 -66 -30
-24 -32 -36 -6 -27 11 3 22 1 26 -5 3 -5 21 -10 40 -10 19 0 36 -4 39 -9 3 -5
26 -12 50 -15 25 -4 55 -16 68 -26 20 -16 21 -22 11 -39 -17 -27 -16 -31 4
-31 9 0 31 -11 49 -25 47 -36 74 -34 74 6 0 18 5 49 11 70 10 33 9 45 -9 88
-22 54 -20 61 15 61 54 0 109 -50 91 -84 -15 -28 8 -123 33 -136 10 -6 19 -8
19 -4 0 3 10 0 23 -8 12 -8 42 -17 66 -21 62 -8 69 -19 37 -58 -34 -40 -33
-82 2 -87 29 -4 39 -27 21 -48 -11 -14 -10 -18 5 -30 10 -7 23 -15 29 -17 6
-2 5 -17 -4 -40 -10 -28 -19 -37 -36 -37 -13 0 -23 -6 -23 -12 1 -39 16 -61
57 -80 43 -20 78 -49 120 -101 25 -29 43 -28 81 6 33 30 29 78 -9 122 -26 29
-29 38 -19 50 8 9 10 28 6 51 -5 22 -3 41 5 50 12 15 27 70 36 137 8 55 29 58
74 9 21 -23 42 -42 47 -42 5 0 8 -10 8 -22 -1 -19 5 -23 36 -26 37 -3 59 11
84 53 17 29 92 22 119 -11 28 -35 74 -31 93 9 20 41 6 158 -24 198 -17 24 -21
36 -14 50 6 10 10 29 10 44 0 14 11 48 25 75 14 27 25 65 25 84 0 26 8 44 30
66 34 34 36 46 15 74 -8 11 -15 39 -15 63 0 33 -6 49 -23 66 -23 21 -52 67
-45 71 2 1 15 7 30 14 24 10 26 15 21 46 -5 32 -3 36 32 53 l38 18 2 133 c2
123 4 134 25 157 23 24 23 27 13 130 -6 70 -15 111 -26 122 -9 11 -13 28 -10
44 4 20 -4 33 -36 62 -41 37 -67 43 -106 28 -14 -6 -35 -1 -68 16 -44 24 -49
24 -72 9 -28 -18 -81 -21 -91 -5 -4 6 -19 9 -37 5 -16 -3 -36 -1 -43 5 -7 6
-43 13 -79 15 -47 2 -80 10 -111 28 -26 14 -71 28 -104 32 -58 6 -60 6 -70
-20 -10 -27 -20 -32 -35 -17 -6 5 -23 11 -40 13 -26 3 -30 7 -30 33 0 30 0 30
-70 36 -84 8 -151 1 -166 -17 -16 -19 -39 -18 -110 6 -34 12 -64 19 -67 16 -5
-5 -8 -26 -15 -93 -3 -26 -52 -67 -73 -59 -22 9 -28 35 -11 54 8 9 18 36 22
59 6 38 3 47 -27 85 -18 24 -33 44 -34 46 -1 2 -19 -9 -39 -23 l-38 -25 -33
25 c-33 25 -94 34 -94 14 0 -7 -10 -9 -25 -5 -14 4 -25 2 -25 -4 0 -5 -9 -10
-20 -10 -25 0 -26 17 -3 42 15 17 15 20 3 28 -22 14 -35 7 -38 -23 -3 -22 -8
-27 -33 -27 l-29 0 20 20 c12 12 18 25 15 30 -8 13 -83 2 -111 -16 -19 -11
-24 -10 -40 7 -16 17 -20 18 -29 6 -8 -11 -31 -14 -98 -12 -76 2 -92 6 -113
26 -13 12 -24 31 -24 41 0 29 -28 21 -70 -22 -43 -44 -65 -52 -55 -20 7 23 2
25 -26 8 -17 -11 -22 -10 -40 12 l-20 25 7 -27 c4 -21 1 -29 -16 -38 -23 -13
-39 -1 -40 27 0 7 -10 12 -22 10 -18 -1 -25 5 -33 31 -6 21 -17 35 -32 38 -28
7 -46 -4 -39 -23 4 -10 -9 -29 -36 -54 -49 -43 -58 -47 -58 -20 0 10 -9 21
-20 24 -23 6 -27 35 -5 43 8 4 15 10 15 14 0 13 -68 32 -90 25 -15 -5 -23 0
-31 18 -15 32 -41 42 -111 42 -50 0 -59 -3 -78 -28 -17 -22 -25 -25 -36 -16
-8 6 -25 8 -39 5 -18 -5 -27 -2 -31 8 -10 27 -90 58 -126 51 -32 -7 -33 -7
-15 12 9 11 14 23 10 27 -4 4 -6 23 -5 44 2 30 0 34 -10 24 -14 -14 -69 -16
-84 -3 -5 4 -26 11 -48 14 -34 5 -42 2 -66 -23 -16 -17 -33 -30 -38 -30 -16 0
-42 42 -42 68 0 32 -28 40 -47 13 -8 -13 -24 -21 -36 -20 -12 0 -27 1 -34 0
-16 -1 -29 -89 -14 -104 20 -20 13 -47 -14 -47 -30 0 -49 32 -42 69 7 34 1 43
-42 64 -41 21 -65 21 -80 3 -8 -9 -36 -14 -89 -14 l-78 -1 -47 45 c-37 35 -49
42 -53 29z m1116 -295 c0 -5 -6 -10 -14 -10 -7 0 -16 -8 -19 -19 -5 -20 -63
-35 -73 -19 -12 19 38 58 73 58 18 0 33 -4 33 -10z m-324 -85 c19 -16 25 -28
19 -34 -14 -14 -71 31 -61 47 9 16 8 16 42 -13z m767 9 c7 -7 -45 -113 -56
-113 -4 -1 -10 7 -14 17 -3 9 -12 24 -20 33 -17 20 -9 43 20 57 25 12 61 15
70 6z m637 -44 c0 -12 -28 -25 -36 -17 -9 9 6 27 22 27 8 0 14 -5 14 -10z
m-1285 -50 c-5 -8 -11 -8 -17 -2 -6 6 -7 16 -3 22 5 8 11 8 17 2 6 -6 7 -16 3
-22z m1735 -185 c0 -8 -4 -15 -10 -15 -5 0 -10 7 -10 15 0 8 5 15 10 15 6 0
10 -7 10 -15z m1078 -67 c17 -17 15 -35 -5 -42 -22 -9 -36 7 -28 33 7 24 16
26 33 9z m162 -28 c0 -5 -7 -10 -15 -10 -8 0 -15 5 -15 10 0 6 7 10 15 10 8 0
15 -4 15 -10z m90 -40 c0 -15 -7 -20 -25 -20 -24 0 -34 18 -18 33 15 15 43 7
43 -13z m-1632 -51 c-2 -6 -8 -10 -13 -10 -5 0 -11 4 -13 10 -2 6 4 11 13 11
9 0 15 -5 13 -11z m-1678 -634 c0 -8 0 -18 1 -22 0 -4 -4 -9 -9 -11 -11 -3
-23 34 -14 42 10 11 22 6 22 -9z m-1282 -157 c5 -25 -20 -22 -36 3 -12 19 -11
20 10 17 12 -2 24 -11 26 -20z m3596 -329 c-3 -5 -10 -7 -15 -3 -5 3 -7 10 -3
15 3 5 10 7 15 3 5 -3 7 -10 3 -15z m-6055 -98 l35 -18 -65 -5 c-76 -6 -109 9
-63 29 39 16 53 15 93 -6z"/>
<path d="M11300 7181 c0 -15 41 -40 56 -34 21 8 17 18 -11 31 -31 14 -45 15
-45 3z"/>
<path d="M11390 7120 c0 -11 5 -20 10 -20 6 0 10 9 10 20 0 11 -4 20 -10 20
-5 0 -10 -9 -10 -20z"/>
<path d="M20385 6798 c-49 -17 -136 -48 -191 -69 -56 -22 -104 -39 -108 -39
-3 0 -57 -25 -119 -55 -121 -58 -158 -91 -171 -152 -12 -52 22 -105 86 -136
29 -14 71 -31 93 -37 75 -24 276 -129 348 -184 74 -55 107 -93 139 -156 17
-34 17 -22 18 413 0 246 -1 447 -2 446 -2 0 -43 -14 -93 -31z"/>
<path d="M3792 6643 c2 -10 10 -18 18 -18 8 0 16 8 18 18 2 12 -3 17 -18 17
-15 0 -20 -5 -18 -17z"/>
<path d="M4195 6611 c3 -6 0 -13 -7 -18 -35 -22 -51 -99 -23 -109 8 -4 15 -12
15 -19 0 -7 7 -15 15 -19 11 -4 15 2 15 20 0 33 17 64 35 64 20 0 19 16 -1 24
-8 3 -13 10 -9 16 3 5 -3 18 -15 30 -21 21 -36 27 -25 11z"/>
<path d="M4084 6489 c-3 -6 -2 -15 2 -19 12 -12 38 5 30 19 -9 14 -23 14 -32
0z"/>
<path d="M4350 6454 c0 -9 5 -14 12 -12 18 6 21 28 4 28 -9 0 -16 -7 -16 -16z"/>
<path d="M4135 6449 c-4 -6 -5 -13 -2 -16 7 -7 27 6 27 18 0 12 -17 12 -25 -2z"/>
<path d="M4426 6394 c-48 -55 -48 -56 -54 -140 -3 -63 -8 -84 -17 -80 -7 2
-21 -1 -30 -8 -14 -10 -15 -16 -6 -34 12 -23 26 -28 35 -13 3 5 15 7 26 4 14
-4 20 0 20 11 0 9 18 35 40 57 46 48 48 55 18 63 -22 5 -20 8 25 49 52 49 57
61 26 77 -16 9 -19 17 -14 41 10 46 -15 36 -69 -27z m-6 -124 c0 -5 -2 -10 -4
-10 -3 0 -8 5 -11 10 -3 6 -1 10 4 10 6 0 11 -4 11 -10z"/>
<path d="M4303 6393 c-20 -7 -15 -23 7 -23 11 0 20 4 20 9 0 13 -12 19 -27 14z"/>
<path d="M4576 6373 c-11 -11 -6 -23 8 -23 8 0 17 4 20 9 7 10 -19 23 -28 14z"/>
<path d="M4560 6314 c0 -8 5 -12 10 -9 6 3 10 10 10 16 0 5 -4 9 -10 9 -5 0
-10 -7 -10 -16z"/>
<path d="M4726 6275 c-4 -12 -10 -14 -25 -5 -27 14 -41 13 -41 -5 0 -9 9 -15
25 -15 19 0 25 -5 25 -23 0 -51 47 -62 85 -21 33 36 31 46 -7 42 -28 -2 -34 1
-36 20 -4 25 -17 29 -26 7z"/>
<path d="M4526 6230 c19 -36 32 -46 47 -31 8 8 8 11 -1 11 -7 0 -18 11 -24 25
-6 14 -17 25 -24 25 -10 0 -9 -7 2 -30z"/>
<path d="M4880 6205 c-5 -14 -13 -25 -18 -25 -5 0 -14 -12 -21 -26 -7 -17 -17
-24 -26 -20 -8 3 -15 2 -15 -3 0 -14 34 -39 63 -46 33 -9 82 19 73 41 -3 9 -1
24 5 35 7 15 6 23 -6 35 -8 8 -15 20 -15 25 0 20 -31 8 -40 -16z"/>
<path d="M4996 6139 c-21 -17 -26 -29 -26 -66 l0 -46 41 6 c29 4 46 1 56 -9
18 -17 33 -10 33 17 0 12 7 19 18 19 24 0 42 19 35 36 -3 9 -20 14 -44 14 -32
0 -41 5 -51 25 -14 30 -27 31 -62 4z"/>
<path d="M4450 6120 c0 -36 26 -80 46 -80 8 0 19 12 24 26 8 21 6 31 -12 54
-31 40 -58 39 -58 0z"/>
<path d="M4241 6111 c-16 -28 13 -51 36 -28 18 18 11 47 -11 47 -9 0 -20 -9
-25 -19z"/>
<path d="M4150 6061 c0 -6 5 -11 10 -11 6 0 10 -9 10 -20 0 -11 5 -20 11 -20
18 0 6 55 -13 58 -10 2 -18 -1 -18 -7z"/>
<path d="M5460 6030 c-6 -12 -10 -35 -8 -53 2 -27 7 -32 28 -32 19 0 26 6 28
26 4 30 -13 79 -27 79 -6 0 -15 -9 -21 -20z"/>
<path d="M4323 6033 c-18 -2 -33 -8 -33 -14 0 -5 4 -9 9 -9 5 0 11 -9 14 -20
7 -29 32 -25 56 9 20 28 19 43 -3 39 -6 0 -26 -3 -43 -5z"/>
<path d="M4431 6006 c-8 -9 -11 -19 -7 -23 9 -9 29 13 24 27 -2 8 -8 7 -17 -4z"/>
<path d="M5515 5840 c-3 -5 -3 -15 1 -22 4 -7 10 -28 14 -48 6 -36 32 -52 53
-31 8 8 3 19 -16 39 -15 15 -27 35 -27 44 0 20 -16 32 -25 18z"/>
<path d="M10814 5459 c-8 -14 11 -33 25 -25 6 4 11 11 11 16 0 13 -29 20 -36
9z"/>
<path d="M10170 5365 c0 -27 1 -28 24 -19 24 9 20 44 -4 44 -15 0 -20 -7 -20
-25z"/>
<path d="M14741 5259 c-38 -29 -42 -35 -37 -64 8 -43 -9 -88 -44 -114 -26 -19
-30 -28 -30 -70 0 -62 -19 -85 -101 -125 -53 -26 -64 -35 -64 -56 0 -32 42
-49 80 -32 22 10 26 17 21 40 -3 15 -2 32 2 39 12 19 82 -9 99 -40 15 -30 48
-43 68 -27 8 6 23 9 33 6 13 -5 33 4 62 29 23 19 46 35 51 35 5 0 11 11 15 25
5 19 -2 34 -29 66 -20 23 -37 53 -39 67 -2 18 -10 28 -28 32 -23 5 -25 11 -28
70 -2 56 1 70 22 99 43 58 14 69 -53 20z"/>
<path d="M14933 5063 c9 -9 19 -14 23 -11 10 10 -6 28 -24 28 -15 0 -15 -1 1
-17z"/>
<path d="M10633 5018 c-6 -7 -15 -26 -20 -43 -8 -26 -15 -30 -49 -32 -21 -2
-70 -8 -107 -14 -59 -9 -71 -9 -93 6 -29 19 -57 13 -48 -9 16 -42 -40 -72 -78
-42 -22 16 -23 36 -3 36 8 0 15 7 15 15 0 10 -10 15 -28 15 -16 0 -47 14 -70
31 -35 26 -46 29 -69 22 -16 -5 -33 -19 -39 -31 -30 -61 -92 -82 -138 -47 -28
21 -32 20 -82 -31 l-44 -46 -46 11 c-40 10 -48 9 -71 -9 -24 -19 -28 -19 -49
-5 -35 22 -125 8 -139 -22 -7 -17 -15 -21 -35 -16 -36 8 -40 12 -33 28 5 16
-12 21 -21 6 -3 -4 -40 -11 -83 -15 -101 -9 -118 -21 -127 -85 -7 -56 -10 -59
-33 -35 -11 11 -26 14 -46 10 -16 -3 -37 -6 -47 -6 -9 0 -33 -11 -52 -24 -30
-20 -37 -21 -53 -10 -10 8 -32 14 -47 14 -21 0 -32 7 -40 25 -16 36 -53 43
-82 16 -21 -20 -25 -21 -59 -6 -47 19 -185 20 -212 1 -43 -29 -135 -76 -149
-76 -8 0 -20 -8 -25 -17 -10 -17 -12 -16 -30 6 -18 24 -19 24 -58 8 -38 -15
-44 -14 -103 4 -77 24 -95 24 -119 0 -27 -27 -80 -32 -111 -10 -25 18 -26 18
-95 -7 -80 -29 -95 -39 -95 -65 0 -20 -39 -61 -51 -54 -4 3 -5 23 -2 45 6 45
4 47 -71 54 -26 2 -53 9 -59 15 -20 20 -53 12 -83 -19 -16 -17 -38 -35 -50
-39 -27 -12 -125 7 -139 26 -17 23 -92 8 -122 -26 -24 -25 -31 -26 -148 -31
-80 -4 -128 -10 -139 -19 -23 -19 -42 -8 -66 39 -11 22 -25 40 -30 40 -16 0
-41 -60 -34 -82 6 -20 4 -21 -56 -15 -63 7 -123 35 -148 69 -20 27 -48 22 -92
-18 -49 -44 -56 -65 -36 -106 23 -46 20 -64 -15 -79 -23 -9 -41 -10 -69 -2
-22 5 -47 6 -60 1 -14 -5 -27 -5 -34 2 -5 5 -17 10 -26 10 -21 0 -87 -56 -95
-79 -3 -10 -18 -21 -33 -24 -32 -7 -78 -50 -138 -131 -48 -65 -52 -80 -29
-113 14 -20 13 -25 -6 -57 -11 -20 -25 -36 -30 -36 -16 0 -61 -55 -80 -97 -15
-33 -17 -47 -9 -63 6 -11 15 -20 21 -20 6 0 9 -10 7 -22 -2 -18 -11 -24 -37
-28 -42 -6 -49 -22 -21 -48 l21 -19 -26 -17 c-23 -15 -25 -23 -25 -82 0 -74
-12 -104 -41 -104 -11 0 -33 -13 -48 -29 -25 -26 -28 -34 -21 -63 18 -79 31
-118 40 -118 5 0 21 18 37 40 15 22 31 40 36 40 12 0 7 -24 -8 -44 -8 -11 -15
-36 -15 -56 0 -20 -9 -65 -21 -101 l-21 -64 21 -14 c16 -10 21 -24 21 -56 0
-50 21 -75 45 -55 22 18 45 5 45 -28 0 -16 7 -52 16 -82 13 -45 14 -57 3 -78
-12 -22 -11 -26 14 -48 18 -15 41 -24 62 -24 28 0 37 -6 50 -30 9 -16 19 -31
23 -31 4 -1 20 -3 35 -5 16 -1 35 -8 43 -15 11 -9 17 -9 29 1 8 7 26 10 40 7
30 -5 55 23 55 63 0 31 7 40 44 64 26 17 30 17 38 2 5 -9 15 -16 23 -16 8 0
17 -11 21 -25 3 -14 12 -25 20 -25 22 0 16 24 -11 50 -33 31 -33 67 1 80 38
15 46 13 84 -19 l35 -29 -13 -48 c-13 -48 -13 -50 13 -71 32 -28 56 -29 80 -3
16 18 17 24 5 61 -13 37 -12 43 3 54 26 19 22 63 -5 67 -15 2 -24 11 -26 25
-4 29 33 41 57 19 28 -25 51 -19 102 29 26 25 57 45 67 45 11 0 25 7 32 15 7
8 25 15 41 15 33 0 54 -29 44 -61 -4 -11 -1 -27 5 -35 11 -12 17 -11 45 6 18
11 50 20 73 20 46 0 52 9 52 81 0 63 22 77 102 63 52 -9 53 -9 50 -42 -3 -23
1 -34 13 -38 9 -4 20 -2 24 5 4 6 15 9 24 5 19 -7 22 8 7 36 -14 26 13 41 50
27 22 -8 37 -6 76 11 42 18 51 19 60 7 15 -20 54 -19 54 0 0 19 40 35 89 35
44 0 71 24 71 62 0 32 40 51 96 46 38 -3 39 -4 36 -40 -4 -47 5 -48 96 -11 58
23 118 34 185 34 9 0 17 7 17 15 0 20 -1 20 71 -17 17 -8 25 -7 36 4 12 12 11
18 -10 43 -19 22 -23 34 -16 47 15 26 29 20 29 -12 0 -31 52 -85 74 -78 6 2
16 23 21 46 11 44 46 80 78 81 9 0 26 9 38 21 33 33 111 35 165 3 24 -14 42
-29 39 -34 -3 -4 3 -10 13 -13 9 -2 26 -8 36 -13 17 -6 18 -4 12 21 -6 23 -4
26 9 21 9 -3 19 -6 21 -6 2 0 4 -7 4 -16 0 -8 9 -35 20 -60 22 -47 41 -54 75
-30 11 7 34 16 50 20 17 4 41 15 55 25 l24 19 -19 36 c-25 45 -13 59 52 61 26
1 61 5 77 10 33 9 125 -17 165 -47 13 -10 29 -18 36 -18 7 0 22 -16 34 -36 26
-43 59 -44 79 -1 14 29 32 36 32 12 0 -8 11 -24 24 -37 13 -13 26 -32 28 -43
2 -13 12 -21 31 -23 22 -3 27 1 27 17 0 15 6 21 24 21 22 0 23 3 19 48 -4 42
-2 48 18 57 13 6 26 19 29 30 3 11 10 29 17 40 9 16 14 18 24 8 16 -15 55 -17
64 -3 4 6 13 7 24 1 11 -6 33 -6 60 0 28 6 48 6 62 -2 16 -8 25 -7 40 7 12 11
35 17 64 16 25 0 47 4 51 9 3 5 14 9 24 9 12 0 20 8 22 23 2 15 11 23 28 25
14 2 35 8 47 14 18 9 27 4 66 -37 41 -43 48 -46 79 -40 18 4 53 17 78 30 39
20 45 27 48 59 4 39 17 48 27 16 4 -11 20 -35 36 -52 16 -18 29 -36 29 -40 0
-5 14 -8 30 -8 24 0 30 -4 30 -20 0 -27 43 -67 81 -75 32 -7 35 -15 17 -33
-10 -9 -9 -16 4 -28 21 -22 41 -8 34 22 -5 20 -3 24 17 24 12 0 32 6 43 14 11
8 33 16 49 18 38 4 43 32 16 86 -22 42 -13 69 18 53 14 -8 72 -15 93 -12 4 1
2 15 -4 32 -7 21 -22 36 -44 45 -34 14 -49 40 -38 68 9 23 28 20 62 -9 16 -14
47 -30 68 -38 38 -12 39 -14 39 -57 0 -39 4 -46 27 -58 23 -11 32 -10 58 3 17
9 39 15 48 14 48 -4 55 21 23 83 -10 21 -16 40 -13 43 11 10 64 5 93 -10 23
-13 28 -20 23 -39 -4 -17 1 -27 20 -40 14 -9 26 -23 26 -31 0 -8 11 -22 25
-31 39 -26 55 -6 48 61 -6 60 -9 57 78 68 44 6 73 -8 47 -24 -10 -5 -22 -28
-28 -50 -6 -22 -13 -46 -16 -53 -3 -8 2 -16 12 -20 13 -5 15 -2 10 17 -4 19 0
27 22 38 35 18 43 30 36 53 -4 13 -2 17 7 13 8 -2 13 -10 12 -16 -2 -6 4 -11
13 -11 12 0 15 -6 11 -22 -4 -15 1 -32 14 -48 l20 -25 -2 30 c-3 49 0 65 14
65 6 0 13 -11 13 -24 2 -33 33 -73 67 -85 15 -6 27 -17 27 -25 0 -9 4 -16 10
-16 5 0 16 -13 25 -29 15 -29 15 -29 47 -14 30 15 32 15 50 -7 10 -12 18 -29
18 -38 0 -10 9 -5 26 16 34 40 44 40 45 0 2 -81 29 -107 70 -69 16 14 20 27
15 45 -4 16 1 37 15 60 22 38 37 44 57 24 9 -9 15 -9 24 0 15 15 52 15 94 0
30 -11 33 -15 31 -51 -1 -22 -7 -42 -14 -44 -21 -8 -16 -61 6 -73 13 -7 22 -7
26 0 3 5 18 10 32 10 15 0 36 12 54 31 22 23 34 29 50 24 19 -6 21 -4 16 14
-8 30 22 42 90 37 63 -5 102 -14 119 -27 6 -5 53 -10 105 -13 122 -5 155 -13
166 -40 9 -19 18 -21 104 -21 92 0 94 0 107 -27 9 -20 21 -28 38 -28 19 0 28
-7 36 -31 14 -41 41 -35 48 11 8 48 27 80 48 80 34 0 207 -68 210 -82 2 -8 -4
-21 -13 -28 -21 -18 -19 -50 6 -76 l21 -22 -21 -11 c-38 -21 -18 -69 35 -85
38 -11 53 2 47 40 -5 30 -3 34 16 34 11 0 21 -6 21 -14 0 -8 15 -20 34 -26 19
-6 40 -18 46 -26 7 -7 22 -14 33 -14 11 0 29 -8 39 -17 11 -9 42 -20 71 -24
29 -4 64 -11 79 -14 22 -6 33 -1 58 24 18 17 41 31 53 31 41 0 98 -21 104 -38
9 -24 23 -32 56 -32 34 0 121 -39 161 -73 33 -27 28 -47 -10 -47 -16 0 -24 -5
-21 -12 2 -7 -2 -21 -10 -30 -13 -15 -12 -18 16 -32 50 -26 140 -17 148 16 3
10 9 18 13 18 5 0 10 10 12 23 2 14 13 26 33 32 77 26 120 113 95 191 -9 26
-8 39 5 63 8 17 22 31 29 31 18 0 16 111 -2 132 -7 9 -26 18 -42 22 -49 9 -57
41 -38 155 9 53 15 116 13 141 -3 49 7 70 36 70 12 0 19 7 19 19 0 25 17 37
60 44 76 12 105 23 109 42 2 10 -11 48 -27 84 -17 36 -33 73 -37 81 -3 8 -12
26 -20 40 -19 33 -19 74 0 90 20 17 19 89 -2 120 -32 47 -76 94 -112 118 -30
21 -40 23 -63 14 -25 -9 -31 -7 -53 20 -14 16 -25 37 -25 45 0 9 -8 25 -17 35
-9 10 -20 44 -24 74 -10 72 -17 78 -65 65 -22 -6 -57 -11 -79 -11 -22 0 -51
-7 -63 -16 -14 -10 -34 -14 -50 -11 -21 4 -32 -1 -48 -20 -22 -28 -44 -24 -44
7 0 29 -15 32 -44 9 -24 -19 -30 -20 -57 -9 -22 10 -28 17 -23 32 8 27 -6 144
-21 164 -11 16 -14 16 -36 1 -13 -10 -35 -17 -50 -17 -26 0 -59 -27 -59 -48 0
-7 7 -12 16 -12 14 0 14 -3 4 -15 -18 -22 -30 -18 -30 9 0 33 -23 48 -78 53
-49 5 -58 0 -101 -56 -22 -30 -51 -22 -51 14 0 18 -7 28 -25 35 -14 5 -33 25
-42 45 -19 39 -37 45 -53 15 -8 -15 -21 -20 -49 -20 -24 0 -44 -6 -52 -17 -24
-28 -69 -42 -101 -31 -16 6 -38 8 -50 5 -11 -3 -38 3 -60 14 -21 11 -43 17
-47 15 -5 -3 -21 4 -36 15 -20 16 -29 19 -38 10 -15 -15 -54 -14 -60 3 -5 13
-61 46 -79 46 -4 0 -8 -7 -8 -15 0 -22 -37 -18 -43 5 -7 28 -52 35 -110 17
-48 -15 -52 -15 -70 1 -18 16 -39 20 -138 25 -25 1 -53 8 -62 15 -10 9 -27 11
-46 7 -27 -6 -31 -3 -45 28 -23 55 -63 57 -118 5 -23 -23 -39 -23 -45 1 -6 23
-58 62 -81 62 -9 0 -32 -3 -49 -7 -25 -5 -34 -2 -39 10 -3 9 -12 16 -20 16 -8
0 -23 5 -34 12 -20 13 -30 9 -34 -14 -4 -31 -17 -39 -54 -32 -20 4 -43 11 -50
17 -7 5 -30 7 -52 4 -56 -7 -69 16 -64 112 5 85 -4 101 -51 101 -29 0 -33 -3
-38 -32 -2 -18 0 -41 5 -51 7 -14 3 -27 -17 -53 -36 -47 -64 -44 -85 10 -8 22
-15 27 -31 23 -16 -4 -30 4 -54 30 -35 38 -59 39 -100 3 -11 -10 -41 -28 -68
-40 -38 -18 -50 -20 -62 -10 -21 18 -19 29 10 40 14 5 25 14 25 19 0 11 -62
41 -85 41 -10 0 -35 16 -56 35 -31 28 -47 35 -79 35 -30 0 -40 -4 -40 -16 0
-15 -44 -58 -65 -65 -5 -1 -22 14 -36 35 -24 37 -27 38 -96 42 -50 4 -73 1
-80 -8z m847 -248 c0 -5 -4 -10 -10 -10 -5 0 -10 5 -10 10 0 6 5 10 10 10 6 0
10 -4 10 -10z m-1974 -38 c-10 -10 -29 15 -21 28 6 9 10 8 17 -4 6 -10 7 -20
4 -24z m2575 -75 c-8 -8 -11 -5 -11 9 0 27 14 41 18 19 2 -9 -1 -22 -7 -28z
m524 -96 c-3 -6 -11 -11 -17 -11 -6 0 -6 6 2 15 14 17 26 13 15 -4z m-5054
-78 c3 -46 -20 -103 -42 -103 -12 0 -12 47 0 54 4 3 11 19 14 36 7 32 26 41
28 13z m-794 -15 c-3 -8 -6 -5 -6 6 -1 11 2 17 5 13 3 -3 4 -12 1 -19z m6430
-94 c3 -8 0 -21 -6 -27 -10 -9 -16 -8 -27 7 -8 11 -14 23 -14 28 0 15 41 8 47
-8z m1136 -96 c14 -17 23 -37 20 -45 -7 -18 -77 -17 -93 2 -7 8 -23 15 -36 15
-35 0 -29 17 14 39 53 27 67 25 95 -11z m-424 -84 c-9 -11 -15 -12 -23 -4 -8
8 -7 13 4 20 20 12 33 1 19 -16z m431 -24 c0 -5 -2 -10 -4 -10 -3 0 -8 5 -11
10 -3 6 -1 10 4 10 6 0 11 -4 11 -10z m-8323 -86 c-3 -3 -12 -4 -19 -1 -8 3
-5 6 6 6 11 1 17 -2 13 -5z m8411 -31 c-5 -25 -28 -28 -28 -4 0 12 6 21 16 21
9 0 14 -7 12 -17z m-8453 -305 c-9 -40 -10 -42 -30 -34 -37 14 -24 66 17 66
17 0 19 -5 13 -32z m8625 -47 c0 -19 -35 -39 -47 -27 -7 7 26 46 39 46 4 0 8
-9 8 -19z m-8795 -61 c3 -5 2 -10 -4 -10 -5 0 -13 5 -16 10 -3 6 -2 10 4 10 5
0 13 -4 16 -10z m8755 -20 c0 -5 -4 -10 -10 -10 -5 0 -10 5 -10 10 0 6 5 10
10 10 6 0 10 -4 10 -10z m-3298 -132 c-9 -9 -15 -9 -24 0 -9 9 -7 12 12 12 19
0 21 -3 12 -12z m-2468 -174 c24 -9 19 -22 -14 -39 -52 -27 -68 -13 -28 25 25
23 22 22 42 14z m5616 -635 c0 -15 -30 -23 -42 -11 -6 6 -8 18 -4 27 4 13 10
14 26 5 11 -6 20 -15 20 -21z"/>
<path d="M11830 4860 c0 -5 5 -10 10 -10 6 0 10 5 10 10 0 6 -4 10 -10 10 -5
0 -10 -4 -10 -10z"/>
<path d="M14980 4800 c-18 -36 -19 -43 -6 -72 8 -18 33 -52 55 -75 42 -45 78
-55 100 -29 15 18 5 78 -20 126 -11 19 -19 40 -19 45 0 10 -66 45 -83 45 -4 0
-16 -18 -27 -40z"/>
<path d="M11945 4801 c-6 -11 9 -23 19 -14 9 9 7 23 -3 23 -6 0 -12 -4 -16 -9z"/>
<path d="M4050 4695 c0 -8 5 -15 10 -15 6 0 10 7 10 15 0 8 -4 15 -10 15 -5 0
-10 -7 -10 -15z"/>
<path d="M4287 4644 c-14 -14 -7 -35 11 -32 9 2 17 10 17 17 0 16 -18 25 -28
15z"/>
<path d="M4602 4539 c2 -7 10 -15 17 -17 8 -3 12 1 9 9 -2 7 -10 15 -17 17 -8
3 -12 -1 -9 -9z"/>
<path d="M4770 4500 c0 -5 7 -10 15 -10 8 0 15 5 15 10 0 6 -7 10 -15 10 -8 0
-15 -4 -15 -10z"/>
<path d="M14945 4045 l-50 -44 30 -27 c24 -20 37 -25 64 -20 18 3 36 8 39 11
9 9 2 98 -10 112 -15 18 -17 17 -73 -32z"/>
<path d="M5672 3798 c7 -19 38 -22 38 -4 0 10 -9 16 -21 16 -12 0 -19 -5 -17
-12z"/>
<path d="M16930 3760 c0 -5 7 -10 15 -10 8 0 15 5 15 10 0 6 -7 10 -15 10 -8
0 -15 -4 -15 -10z"/>
<path d="M14843 3543 c-7 -2 -13 -11 -13 -18 0 -17 68 -65 92 -65 17 0 19 3
22 30 1 11 -64 60 -78 59 -6 0 -17 -3 -23 -6z"/>
<path d="M14563 3473 c-18 -6 -16 -23 1 -23 17 0 30 16 19 23 -5 2 -14 2 -20
0z"/>
<path d="M12010 3297 c0 -16 32 -47 48 -47 17 0 32 -31 32 -65 0 -8 4 -15 9
-15 15 0 22 31 15 66 -5 28 -11 34 -31 34 -16 0 -27 7 -30 20 -6 22 -43 28
-43 7z"/>
<path d="M11501 3282 c-15 -27 -14 -32 4 -32 9 0 20 -11 24 -24 14 -36 40 -41
47 -8 4 15 14 35 22 45 19 22 17 24 -40 32 -40 6 -48 4 -57 -13z"/>
<path d="M14670 3280 c0 -5 5 -10 11 -10 5 0 7 5 4 10 -3 6 -8 10 -11 10 -2 0
-4 -4 -4 -10z"/>
<path d="M8417 3269 c-19 -11 -23 -34 -6 -44 16 -11 59 4 59 20 0 21 -32 35
-53 24z"/>
<path d="M10709 3263 c-12 -85 6 -145 48 -165 22 -11 27 -19 25 -41 -3 -22 1
-27 17 -27 17 0 21 6 21 35 0 20 -7 49 -15 66 -13 24 -20 28 -39 23 -36 -9
-53 27 -30 61 13 20 14 28 4 40 -13 16 -29 20 -31 8z"/>
<path d="M11408 3223 c-10 -2 -18 -10 -18 -18 0 -7 -7 -18 -15 -25 -21 -18
-19 -48 5 -55 13 -4 31 -28 45 -61 34 -78 75 -72 109 14 25 65 22 88 -14 96
-19 3 -34 15 -42 31 -11 24 -29 29 -70 18z"/>
<path d="M3492 3188 c6 -18 28 -21 28 -4 0 9 -7 16 -16 16 -9 0 -14 -5 -12
-12z"/>
<path d="M8391 3152 c-47 -23 -49 -38 -9 -62 44 -27 52 -25 45 10 -5 22 -3 30
8 30 8 0 15 9 15 20 0 24 -14 25 -59 2z"/>
<path d="M11208 3125 c-4 -20 1 -28 23 -39 35 -18 38 -14 25 29 -13 41 -41 47
-48 10z"/>
<path d="M10632 3088 c-18 -18 -14 -38 7 -38 27 0 37 19 19 36 -11 11 -16 12
-26 2z"/>
<path d="M14652 2948 c5 -15 28 -23 28 -10 0 5 -7 13 -16 16 -10 4 -14 1 -12
-6z"/>
<path d="M8862 2918 c5 -15 28 -18 29 -3 0 6 -7 12 -17 13 -10 3 -15 -1 -12
-10z"/>
<path d="M5635 2890 c3 -5 8 -10 11 -10 2 0 4 5 4 10 0 6 -5 10 -11 10 -5 0
-7 -4 -4 -10z"/>
<path d="M8690 2854 c0 -17 22 -14 28 4 2 7 -3 12 -12 12 -9 0 -16 -7 -16 -16z"/>
<path d="M3966 2842 c-3 -6 -1 -14 5 -17 15 -10 25 3 12 16 -7 7 -13 7 -17 1z"/>
<path d="M8691 2801 c-25 -25 -26 -34 -5 -66 23 -35 59 -33 78 3 30 57 -29
107 -73 63z"/>
<path d="M3995 2800 c3 -5 11 -10 16 -10 6 0 7 5 4 10 -3 6 -11 10 -16 10 -6
0 -7 -4 -4 -10z"/>
<path d="M4035 2780 c3 -5 17 -10 31 -10 13 0 24 5 24 10 0 6 -14 10 -31 10
-17 0 -28 -4 -24 -10z"/>
<path d="M4152 2778 c-19 -19 -14 -36 16 -52 22 -12 31 -12 45 -1 15 11 16 17
6 39 -13 28 -46 35 -67 14z"/>
<path d="M6270 2614 c0 -8 5 -12 10 -9 6 3 10 10 10 16 0 5 -4 9 -10 9 -5 0
-10 -7 -10 -16z"/>
<path d="M6210 2592 c0 -30 16 -52 37 -52 19 0 16 51 -4 66 -26 20 -33 17 -33
-14z"/>
<path d="M4482 2598 c-19 -19 -14 -28 14 -28 18 0 25 5 22 17 -4 21 -21 26
-36 11z"/>
<path d="M4430 2580 c0 -5 5 -10 10 -10 6 0 10 5 10 10 0 6 -4 10 -10 10 -5 0
-10 -4 -10 -10z"/>
<path d="M6472 2579 c2 -7 10 -15 17 -17 8 -3 12 1 9 9 -2 7 -10 15 -17 17 -8
3 -12 -1 -9 -9z"/>
<path d="M4788 2453 c-29 -7 -20 -23 13 -23 20 0 38 -8 50 -22 l18 -23 1 22
c0 12 -10 29 -22 37 -23 16 -29 17 -60 9z"/>
<path d="M4953 2417 c-30 -13 -31 -50 -2 -45 12 2 27 11 33 20 15 24 -3 39
-31 25z"/>
<path d="M6970 2415 c0 -8 5 -15 10 -15 6 0 10 7 10 15 0 8 -4 15 -10 15 -5 0
-10 -7 -10 -15z"/>
<path d="M4465 2410 c-7 -12 2 -30 16 -30 5 0 9 9 9 20 0 21 -15 27 -25 10z"/>
<path d="M5070 2365 c0 -8 5 -15 10 -15 6 0 10 7 10 15 0 8 -4 15 -10 15 -5 0
-10 -7 -10 -15z"/>
<path d="M15154 2335 c-10 -25 15 -46 45 -39 40 10 49 23 27 40 -26 18 -65 18
-72 -1z"/>
<path d="M6534 2289 c-3 -6 3 -20 14 -32 21 -20 22 -20 42 -2 31 28 25 45 -14
45 -19 0 -38 -5 -42 -11z"/>
<path d="M14574 2046 c-10 -27 1 -71 19 -74 12 -3 22 7 33 33 8 20 12 40 9 45
-9 15 -55 12 -61 -4z"/>
<path d="M14720 2041 c0 -5 7 -11 15 -15 8 -3 15 -1 15 3 0 5 -7 11 -15 15 -8
3 -15 1 -15 -3z"/>
<path d="M14902 1953 c2 -10 10 -18 18 -18 22 0 18 29 -3 33 -14 3 -18 -1 -15
-15z"/>
<path d="M15032 1953 c-12 -2 -29 -18 -37 -34 -11 -19 -23 -29 -39 -29 -33 0
-63 -36 -50 -58 16 -25 47 -26 85 -3 21 13 51 21 80 21 56 0 62 11 37 68 -19
42 -24 45 -76 35z"/>
<path d="M14966 1763 c-9 -9 -7 -33 3 -33 12 0 22 28 12 34 -5 3 -11 3 -15 -1z"/>
<path d="M15026 1715 c-9 -25 4 -42 36 -49 47 -9 56 -8 68 14 9 16 6 22 -19
35 -38 19 -77 19 -85 0z"/>
<path d="M18745 1618 c-22 -5 -78 -21 -125 -34 -136 -41 -301 -86 -350 -96
-25 -5 -67 -15 -95 -23 -27 -8 -78 -19 -113 -26 -34 -6 -65 -16 -68 -20 -7
-12 68 -11 141 1 33 6 93 15 133 20 85 11 368 77 397 93 11 6 30 16 42 22 13
7 20 15 17 18 -6 6 10 14 86 45 l25 11 -25 -1 c-14 0 -43 -5 -65 -10z"/>
<path d="M18133 1493 c9 -2 23 -2 30 0 6 3 -1 5 -18 5 -16 0 -22 -2 -12 -5z"/>
<path d="M10422 1048 c3 -26 32 -35 54 -17 19 16 0 39 -33 39 -20 0 -24 -4
-21 -22z"/>
<path d="M10372 963 c3 -25 0 -28 -22 -25 -81 10 -85 9 -85 -23 l0 -30 75 -1
c41 0 83 3 92 8 10 5 19 4 23 -2 9 -14 48 -12 69 3 24 18 6 61 -35 82 -27 14
-36 15 -56 4 -18 -10 -26 -10 -35 -1 -20 20 -29 14 -26 -15z"/>
<path d="M10565 920 c-7 -12 2 -30 16 -30 12 0 12 27 0 35 -5 3 -12 1 -16 -5z"/>
<path d="M10052 873 c-32 -21 -42 -34 -42 -55 0 -33 8 -38 73 -45 38 -4 62 -1
85 11 38 20 33 41 -14 58 -25 9 -34 18 -34 35 0 30 -17 29 -68 -4z"/>
<path d="M4533 723 c-3 -8 3 -26 14 -41 11 -15 25 -43 32 -63 21 -65 37 -72
140 -64 50 4 94 11 96 15 11 17 -13 51 -73 106 l-63 56 -70 3 c-53 1 -72 -2
-76 -12z"/>
<path d="M15903 634 c-18 -8 -33 -18 -33 -24 0 -15 69 -63 84 -57 15 6 31 71
21 87 -8 13 -33 11 -72 -6z"/>
<path d="M6264 429 c-8 -14 11 -33 25 -25 11 7 4 36 -9 36 -5 0 -12 -5 -16
-11z"/>
<path d="M8003 384 c-3 -8 0 -21 6 -27 10 -9 16 -8 26 7 8 10 12 23 9 27 -9
15 -34 10 -41 -7z"/>
<path d="M11313 303 c-32 -12 -4 -93 32 -93 35 0 59 57 33 78 -18 13 -50 21
-65 15z"/>
</g>
</svg>
