<svg version="1.1" xmlns="http://www.w3.org/2000/svg" style="display: block;" viewBox="0 0 2048 979" width="1472" height="704" preserveAspectRatio="none">
<path transform="translate(0,0)" fill="rgb(242,224,180)" d="M 1004.42 204.563 C 1007.8 208.507 1010.63 212.219 1014.99 215.105 C 1020 213.074 1029.52 208.42 1034.45 209.086 C 1039.66 212.864 1036.82 219.653 1035.54 225.527 C 1051.53 232.35 1058.51 237.051 1068.46 252.066 C 1070.1 254.537 1072.91 260.415 1074.11 262.112 C 1081.93 261.691 1090.31 261.872 1098.19 261.901 C 1107.23 250.889 1110.86 246.885 1122.52 238.606 C 1137.74 239.755 1132.9 235.787 1146.33 232.702 L 1146.87 232.151 C 1149.85 228.757 1153.99 216.569 1155.92 211.656 C 1158.55 216.439 1159.6 219.326 1161.47 224.356 C 1169.86 225.206 1185.55 226.181 1192.45 230.085 C 1194.11 232.371 1193.79 231.274 1193.54 234.25 C 1209.93 245.348 1217.9 248.206 1224.72 268.302 C 1225.51 270.608 1226.3 274.977 1227.65 276.367 C 1235.52 277.559 1239.77 278.173 1247.66 278.197 C 1253.45 272.685 1260.15 258.991 1266.53 256.137 C 1267.61 255.955 1270.12 255.533 1271.12 255.366 C 1271.08 255.373 1275.8 250.911 1275.95 251.047 C 1276.18 251.254 1279.69 254.001 1280.65 253.986 C 1285.34 253.913 1291.29 253.411 1295.96 253.195 C 1300.87 253.857 1305.53 250.837 1309.72 252.275 C 1311.82 256.394 1310.28 261.796 1309.5 266.662 C 1326.3 273.268 1338.25 284.058 1345.49 300.673 C 1346.21 302.337 1346.81 304.051 1347.29 305.802 C 1364.4 314.074 1393.33 327.356 1393.12 349.649 C 1394.49 357.911 1394.37 400.782 1394.02 410.91 C 1393.2 434.777 1395.23 466.883 1393.9 489.897 C 1393.95 505.876 1393.91 521.856 1393.78 537.834 C 1393.75 541.565 1393.11 553.946 1393.69 557.106 C 1393.78 561.005 1393.82 583.61 1395.03 585.344 C 1434.15 595.365 1499.19 615.401 1522.94 650.341 C 1533.78 666.303 1529.99 685.798 1517.89 700.311 C 1444.81 781.521 1211.4 810.005 1105.11 813.731 C 935.617 819.674 746.516 812.683 586.873 750.915 C 559.912 740.484 528.216 722.968 508.68 701.939 C 459.992 643.133 560.741 606.378 601.839 593.006 C 607.597 591.133 627.672 586.504 630.543 583.085 C 630.068 576.085 630.691 559.715 631.839 552.853 C 630.256 536.171 631.059 505.927 631.036 488.123 C 630.31 449.098 630.763 407.668 631.063 368.595 L 630.982 358.784 L 630.981 358.294 C 631.007 353.677 630.741 348.404 632.184 344.043 C 638.672 324.435 661.447 314.107 678.801 305.634 C 689.444 287.838 698.627 284.268 717.62 279.447 C 720.47 273.769 720.706 269.742 727.342 271.134 C 732.466 269.245 735.015 259.78 736.941 254.88 C 739.268 259.751 742.55 265.794 743.514 270.979 C 750.554 269.034 767.867 262.341 773.273 265.372 C 776.795 270.738 774.173 276.008 772.625 281.995 L 775.79 281.477 C 786.484 276.405 787.573 266.316 796.359 257.259 L 796.915 256.692 C 802.006 251.435 809.991 247.478 816.604 244.101 C 822.858 240.963 838.87 230.494 844.467 226.411 C 845.105 224.119 847.7 220.279 850.137 219.651 C 858.611 226.604 859.415 226.286 869.261 223.415 C 873.15 222.779 877.015 222.007 880.85 221.102 L 880.99 237.123 C 897.393 245.972 900.313 247.519 911.863 262.058 C 915.52 262.133 923.728 262.058 926.908 262.854 L 943.947 261.921 C 951.421 246.729 963.701 230.965 982.298 230.277 C 987.841 228.561 986.734 222.863 991.882 223.114 C 995.849 225.985 997.943 227.966 1001.42 231.29 L 1003.72 224.246 C 1002.16 218.425 1003.63 210.601 1004.42 204.563 z"/>
<path transform="translate(0,0)" fill="rgb(248,244,225)" d="M 630.543 583.085 C 633.49 585.44 631.286 596.271 630.767 600.015 L 632.172 599.803 C 663.936 657.975 818.352 683.915 879.018 685.283 C 879.578 704.234 880.069 741.942 879.069 760.862 C 885.883 758.464 893.592 753.93 900.051 750.384 L 1038.21 669.768 L 1161.69 716.466 C 1181.96 724.145 1205.11 732.403 1225.01 740.567 C 1232.44 742.856 1239.73 745.929 1246.93 748.065 C 1253.35 747.778 1267.18 744.194 1275.37 741.777 C 1311.69 731.049 1374.81 712.668 1391.6 676.434 C 1395.69 667.605 1394.02 622.494 1393.94 610.942 L 1393.9 599.742 C 1393.95 595.34 1393.27 588.856 1395.03 585.344 C 1434.15 595.365 1499.19 615.401 1522.94 650.341 C 1533.78 666.303 1529.99 685.798 1517.89 700.311 C 1444.81 781.521 1211.4 810.005 1105.11 813.731 C 935.617 819.674 746.516 812.683 586.873 750.915 C 559.912 740.484 528.216 722.968 508.68 701.939 C 459.992 643.133 560.741 606.378 601.839 593.006 C 607.597 591.133 627.672 586.504 630.543 583.085 z"/>
<path transform="translate(0,0)" fill="rgb(220,216,215)" d="M 630.767 600.015 L 632.172 599.803 C 663.936 657.975 818.352 683.915 879.018 685.283 C 879.578 704.234 880.069 741.942 879.069 760.862 C 885.883 758.464 893.592 753.93 900.051 750.384 L 1038.21 669.768 L 1161.69 716.466 C 1181.96 724.145 1205.11 732.403 1225.01 740.567 C 1232.44 742.856 1239.73 745.929 1246.93 748.065 C 1253.35 747.778 1267.18 744.194 1275.37 741.777 C 1311.69 731.049 1374.81 712.668 1391.6 676.434 C 1395.69 667.605 1394.02 622.494 1393.94 610.942 C 1401.43 613.876 1408.87 616.936 1416.26 620.123 C 1500.36 656.938 1461.22 699.136 1395.79 721.399 C 1343.23 739.284 1290.3 750.282 1235.2 756.901 C 1073.19 776.249 906.698 775.593 745.473 749.361 C 700.863 742.103 650.587 731.315 609.161 712.635 C 525.379 674.857 565.026 634.266 630.624 611.79 L 630.767 600.015 z"/>
<path transform="translate(0,0)" fill="rgb(169,46,58)" d="M 879.069 760.862 C 875.391 761.129 860.769 759.785 855.773 759.118 C 785.227 748.891 694.165 738.557 640.563 686.863 C 628.146 674.888 630.22 617.581 632.172 599.803 C 663.936 657.975 818.352 683.915 879.018 685.283 C 879.578 704.234 880.069 741.942 879.069 760.862 z"/>
<path transform="translate(0,0)" fill="rgb(220,216,215)" d="M 508.68 701.939 C 509.152 701.858 509.625 701.781 510.101 701.735 C 510.316 701.714 510.531 701.701 510.745 701.677 C 515.793 701.123 544.922 720.623 552.431 724.418 C 579.125 737.908 611.081 746.515 640.006 753.795 C 754.528 782.617 875.418 792.197 993.243 793.351 C 1121.31 794.605 1252.32 785.987 1377.19 756.352 C 1412.89 747.877 1447.58 736.762 1481.01 721.441 C 1491.03 716.85 1508.15 699.891 1517.89 700.311 C 1444.81 781.521 1211.4 810.005 1105.11 813.731 C 935.617 819.674 746.516 812.683 586.873 750.915 C 559.912 740.484 528.216 722.968 508.68 701.939 z"/>
<path transform="translate(0,0)" fill="rgb(248,244,225)" d="M 1004.42 204.563 C 1007.8 208.507 1010.63 212.219 1014.99 215.105 C 1020 213.074 1029.52 208.42 1034.45 209.086 C 1039.66 212.864 1036.82 219.653 1035.54 225.527 C 1051.53 232.35 1058.51 237.051 1068.46 252.066 C 1070.1 254.537 1072.91 260.415 1074.11 262.112 C 1081.93 261.691 1090.31 261.872 1098.19 261.901 C 1107.23 250.889 1110.86 246.885 1122.52 238.606 C 1137.74 239.755 1132.9 235.787 1146.33 232.702 L 1146.87 232.151 C 1149.85 228.757 1153.99 216.569 1155.92 211.656 C 1158.55 216.439 1159.6 219.326 1161.47 224.356 C 1169.86 225.206 1185.55 226.181 1192.45 230.085 C 1194.11 232.371 1193.79 231.274 1193.54 234.25 C 1209.93 245.348 1217.9 248.206 1224.72 268.302 C 1225.51 270.608 1226.3 274.977 1227.65 276.367 C 1235.52 277.559 1239.77 278.173 1247.66 278.197 C 1253.45 272.685 1260.15 258.991 1266.53 256.137 C 1267.61 255.955 1270.12 255.533 1271.12 255.366 C 1271.08 255.373 1275.8 250.911 1275.95 251.047 C 1276.18 251.254 1279.69 254.001 1280.65 253.986 C 1285.34 253.913 1291.29 253.411 1295.96 253.195 C 1300.87 253.857 1305.53 250.837 1309.72 252.275 C 1311.82 256.394 1310.28 261.796 1309.5 266.662 C 1326.3 273.268 1338.25 284.058 1345.49 300.673 C 1346.21 302.337 1346.81 304.051 1347.29 305.802 C 1364.4 314.074 1393.33 327.356 1393.12 349.649 C 1393.04 353.725 1393.38 359.242 1391.39 362.604 L 1391.04 363.21 C 1376.2 388.298 1322.24 403.68 1294.41 410.685 C 1278.28 414.6 1262.09 418.28 1245.85 421.724 C 1219.53 410.922 1190.92 400.844 1164.19 391.01 L 1038.5 344.572 C 994.955 366.443 952.18 391.732 908.852 414.167 C 898.581 419.485 888.124 425.779 878.44 432.101 C 803.678 423.884 712.897 418.404 647.557 377.099 C 642.143 373.676 636.046 363.171 630.982 358.784 L 630.981 358.294 C 631.007 353.677 630.741 348.404 632.184 344.043 C 638.672 324.435 661.447 314.107 678.801 305.634 C 689.444 287.838 698.627 284.268 717.62 279.447 C 720.47 273.769 720.706 269.742 727.342 271.134 C 732.466 269.245 735.015 259.78 736.941 254.88 C 739.268 259.751 742.55 265.794 743.514 270.979 C 750.554 269.034 767.867 262.341 773.273 265.372 C 776.795 270.738 774.173 276.008 772.625 281.995 L 775.79 281.477 C 786.484 276.405 787.573 266.316 796.359 257.259 L 796.915 256.692 C 802.006 251.435 809.991 247.478 816.604 244.101 C 822.858 240.963 838.87 230.494 844.467 226.411 C 845.105 224.119 847.7 220.279 850.137 219.651 C 858.611 226.604 859.415 226.286 869.261 223.415 C 873.15 222.779 877.015 222.007 880.85 221.102 L 880.99 237.123 C 897.393 245.972 900.313 247.519 911.863 262.058 C 915.52 262.133 923.728 262.058 926.908 262.854 L 943.947 261.921 C 951.421 246.729 963.701 230.965 982.298 230.277 C 987.841 228.561 986.734 222.863 991.882 223.114 C 995.849 225.985 997.943 227.966 1001.42 231.29 L 1003.72 224.246 C 1002.16 218.425 1003.63 210.601 1004.42 204.563 z"/>
<path transform="translate(0,0)" fill="rgb(242,224,180)" d="M 1266.53 256.137 C 1267.61 255.955 1270.12 255.533 1271.12 255.366 C 1271.08 255.373 1275.8 250.911 1275.95 251.047 C 1276.18 251.254 1279.69 254.001 1280.65 253.986 C 1285.34 253.913 1291.29 253.411 1295.96 253.195 C 1300.87 253.857 1305.53 250.837 1309.72 252.275 C 1311.82 256.394 1310.28 261.796 1309.5 266.662 C 1326.3 273.268 1338.25 284.058 1345.49 300.673 C 1346.21 302.337 1346.81 304.051 1347.29 305.802 C 1347.24 314.116 1347.63 318.887 1343.88 326.583 C 1335.31 344.142 1314.02 349.459 1296.24 351.505 C 1295.7 391.817 1257.41 395.769 1225.86 395.347 C 1205.08 395.069 1188.25 391.89 1173.02 376.883 C 1195.87 384.665 1218.8 384.675 1241 374.233 C 1257.67 366.392 1270.94 348.595 1261.32 330.198 C 1258.6 325.023 1250.05 315.48 1244.84 312.905 C 1244.91 311.119 1245.29 309.051 1245.57 307.261 L 1246.43 291.948 C 1235.71 295.634 1225.03 299.687 1215 304.98 C 1214.91 297.102 1225.65 286.407 1226.27 278.664 C 1226.37 277.475 1226.67 277.544 1227.65 276.367 C 1235.52 277.559 1239.77 278.173 1247.66 278.197 C 1253.45 272.685 1260.15 258.991 1266.53 256.137 z"/>
<path transform="translate(0,0)" fill="rgb(248,244,225)" d="M 1266.53 256.137 C 1267.61 255.955 1270.12 255.533 1271.12 255.366 C 1271.08 255.373 1275.8 250.911 1275.95 251.047 C 1276.18 251.254 1279.69 254.001 1280.65 253.986 C 1285.34 253.913 1291.29 253.411 1295.96 253.195 C 1300.87 253.857 1305.53 250.837 1309.72 252.275 C 1311.82 256.394 1310.28 261.796 1309.5 266.662 C 1308.69 270.839 1307.23 276.592 1307.76 280.654 C 1309.87 281.136 1310.32 281.081 1311.4 283.324 C 1323.87 309.098 1308.44 322.808 1287.17 332.183 C 1278.37 321.372 1270.56 316.255 1257.23 312.127 C 1253.1 310.847 1247.87 310.563 1245.57 307.261 L 1246.43 291.948 C 1235.71 295.634 1225.03 299.687 1215 304.98 C 1214.91 297.102 1225.65 286.407 1226.27 278.664 C 1226.37 277.475 1226.67 277.544 1227.65 276.367 C 1235.52 277.559 1239.77 278.173 1247.66 278.197 C 1253.45 272.685 1260.15 258.991 1266.53 256.137 z"/>
<path transform="translate(0,0)" fill="rgb(169,46,58)" d="M 1247.66 278.197 C 1253.45 272.685 1260.15 258.991 1266.53 256.137 C 1271.52 261.804 1281.67 277.157 1285.64 283.909 C 1278.58 284.081 1251.87 285.695 1247.48 282.216 C 1247.26 280.274 1247.15 280.045 1247.66 278.197 z"/>
<path transform="translate(0,0)" fill="rgb(169,46,58)" d="M 1295.96 253.195 C 1300.87 253.857 1305.53 250.837 1309.72 252.275 C 1311.82 256.394 1310.28 261.796 1309.5 266.662 C 1308.69 270.839 1307.23 276.592 1307.76 280.654 C 1306.76 282.118 1306.6 282.168 1305.29 283.27 C 1299.09 281.514 1283.92 265.294 1278.62 259.999 C 1283.91 258.108 1291.75 256.422 1295.96 253.195 z"/>
<path transform="translate(0,0)" fill="rgb(242,224,180)" d="M 772.625 281.995 L 775.79 281.477 C 788.962 290.517 790.868 292.919 801.364 305.374 C 818.108 309.233 830.85 309.509 847.723 305.403 L 843.066 316.742 L 838.1 321.474 C 820.856 317.672 819.765 318.953 802.918 310.746 C 813.448 343.103 782.113 360.872 754.296 361.865 C 725.348 362.899 704.324 363.374 681.579 343.918 C 697.255 348.196 710.129 350.959 727.012 348.123 C 747.507 344.681 777.755 331.126 772.754 305.28 C 772.066 301.724 771.924 298.743 769.011 296.725 C 770.825 292.359 771.698 286.71 772.625 281.995 z"/>
<path transform="translate(0,0)" fill="rgb(242,224,180)" d="M 1035.54 225.527 C 1051.53 232.35 1058.51 237.051 1068.46 252.066 C 1070.1 254.537 1072.91 260.415 1074.11 262.112 C 1072.05 265.305 1077.7 281.99 1066.55 293.205 C 1049.02 311.861 1021.95 312.404 997.959 311.458 C 978.239 310.68 963.513 306.85 948.782 292.966 C 969.156 298.634 985.478 300.902 1007.08 294.654 C 1026.36 289.078 1047.9 273.012 1041.18 249.45 C 1040.09 245.643 1037.58 241.643 1033.94 239.862 C 1033.91 237.104 1035.15 228.667 1035.54 225.527 z"/>
<path transform="translate(0,0)" fill="rgb(242,224,180)" d="M 1186.57 245.081 C 1188.57 242.076 1191.18 235.605 1193.54 234.25 C 1209.93 245.348 1217.9 248.206 1224.72 268.302 C 1225.51 270.608 1226.3 274.977 1227.65 276.367 C 1226.67 277.544 1226.37 277.475 1226.27 278.664 C 1225.65 286.407 1214.91 297.102 1215 304.98 L 1214.02 307.27 C 1212.17 308.858 1210.18 310.384 1208.77 312.333 C 1205.86 309.791 1202.82 307.043 1199.86 304.595 C 1198.75 306.672 1194.84 314.325 1193.73 315.829 C 1190.66 314.447 1180.79 316.329 1176.8 316.723 C 1166.81 317.763 1156.75 317.868 1146.74 317.036 C 1130.28 315.713 1113.97 311.843 1102.81 298.688 C 1110.42 301.184 1118.28 302.85 1126.26 303.657 C 1141.17 305.104 1155.61 302.889 1169.37 296.917 C 1191.57 287.28 1204.9 265.971 1186.57 245.081 z"/>
<path transform="translate(0,0)" fill="rgb(242,224,180)" d="M 891.373 329.021 C 895.807 329.212 904.127 336.272 906.562 339.345 C 948.814 392.662 880.756 412.498 839.281 406.669 C 816.623 403.485 811.127 402.681 794.323 388.495 C 819.591 395.722 843.559 397.663 867.336 384.572 C 889.813 372.195 893.828 351.42 878.082 331.737 C 882.483 331.291 887.642 331.196 891.373 329.021 z"/>
<path transform="translate(0,0)" fill="rgb(242,224,180)" d="M 880.99 237.123 C 897.393 245.972 900.313 247.519 911.863 262.058 C 915.52 262.133 923.728 262.058 926.908 262.854 C 921.932 263.649 917.038 263.237 912.008 263.018 C 924.935 288.143 913.356 310.557 886.299 316.928 C 883.549 310.656 879.926 299.06 872.759 298.117 L 867.478 298.738 C 881.635 288.495 889.731 278.255 884.349 259.909 C 883.47 256.914 882.983 256.122 880.367 254.786 C 879.905 251.189 880.735 241.244 880.99 237.123 z"/>
<path transform="translate(0,0)" fill="rgb(169,46,58)" d="M 1004.42 204.563 C 1007.8 208.507 1010.63 212.219 1014.99 215.105 C 1020 213.074 1029.52 208.42 1034.45 209.086 C 1039.66 212.864 1036.82 219.653 1035.54 225.527 C 1035.15 228.667 1033.91 237.104 1033.94 239.862 C 1033.51 242.476 1033.12 244.432 1032.51 247.008 C 1032.02 247.458 1031.44 247.998 1030.77 248.629 C 1014.88 249.507 990.963 249.503 975.502 249.95 C 977.066 245.31 981.26 236.533 983.375 231.607 L 982.298 230.277 C 987.841 228.561 986.734 222.863 991.882 223.114 C 995.849 225.985 997.943 227.966 1001.42 231.29 L 1003.72 224.246 C 1002.16 218.425 1003.63 210.601 1004.42 204.563 z"/>
<path transform="translate(0,0)" fill="rgb(248,244,225)" d="M 1004.42 204.563 C 1007.8 208.507 1010.63 212.219 1014.99 215.105 C 1010.99 217.306 1005.63 219.499 1004.29 223.911 L 1004.41 226.41 L 1003.72 224.246 C 1002.16 218.425 1003.63 210.601 1004.42 204.563 z"/>
<path transform="translate(0,0)" fill="rgb(220,216,215)" d="M 1003.72 224.246 L 1004.41 226.41 L 1004.29 223.911 C 1007.53 229.763 1010.16 236.335 1012.8 242.521 L 1001.42 231.29 L 1003.72 224.246 z"/>
<path transform="translate(0,0)" fill="rgb(169,46,58)" d="M 1215 304.98 C 1225.03 299.687 1235.71 295.634 1246.43 291.948 L 1245.57 307.261 C 1245.29 309.051 1244.91 311.119 1244.84 312.905 C 1243.84 319.093 1242.83 326.638 1241.54 332.664 C 1238.83 332.959 1234.37 333.471 1231.75 333.235 C 1216.33 331.846 1201.31 332.447 1185.87 332.971 L 1193.73 315.829 C 1194.84 314.325 1198.75 306.672 1199.86 304.595 C 1202.82 307.043 1205.86 309.791 1208.77 312.333 C 1210.18 310.384 1212.17 308.858 1214.02 307.27 L 1215 304.98 z"/>
<path transform="translate(0,0)" fill="rgb(248,244,225)" d="M 1208.77 312.333 C 1210.18 310.384 1212.17 308.858 1214.02 307.27 C 1216.66 313.569 1218.83 318.79 1222.05 324.816 C 1217.08 320.82 1213.25 316.847 1208.77 312.333 z"/>
<path transform="translate(0,0)" fill="rgb(169,46,58)" d="M 844.467 226.411 C 845.105 224.119 847.7 220.279 850.137 219.651 C 858.611 226.604 859.415 226.286 869.261 223.415 C 873.15 222.779 877.015 222.007 880.85 221.102 L 880.99 237.123 C 880.735 241.244 879.905 251.189 880.367 254.786 C 874.962 254.616 855.302 239.628 850.309 235.689 L 849.754 237.316 C 848.286 232.978 847.543 229.896 844.467 226.411 z"/>
<path transform="translate(0,0)" fill="rgb(248,244,225)" d="M 844.467 226.411 C 845.105 224.119 847.7 220.279 850.137 219.651 C 858.611 226.604 859.415 226.286 869.261 223.415 L 870.197 224.496 C 865.017 227.926 852.104 232.316 850.309 235.689 L 849.754 237.316 C 848.286 232.978 847.543 229.896 844.467 226.411 z"/>
<path transform="translate(0,0)" fill="rgb(169,46,58)" d="M 872.759 298.117 C 879.926 299.06 883.549 310.656 886.299 316.928 L 891.373 329.021 C 887.642 331.196 882.483 331.291 878.082 331.737 C 869.305 332.441 862.724 332.335 854.014 331.646 C 855.667 327.708 858.388 322.778 860.39 318.89 C 864.224 311.48 867.724 304.779 872.759 298.117 z"/>
<path transform="translate(0,0)" fill="rgb(169,46,58)" d="M 1161.47 224.356 C 1169.86 225.206 1185.55 226.181 1192.45 230.085 C 1194.11 232.371 1193.79 231.274 1193.54 234.25 C 1191.18 235.605 1188.57 242.076 1186.57 245.081 C 1183.31 249.529 1180.09 257.151 1175.67 258.905 C 1169.04 256.706 1162.83 231.319 1161.47 224.356 z"/>
<path transform="translate(0,0)" fill="rgb(169,46,58)" d="M 1146.87 232.151 C 1151.94 234.92 1161.65 258.527 1164.58 264.87 C 1152.55 262.138 1131.47 257.877 1120.53 253.704 C 1126.46 248.347 1143.03 236.997 1146.33 232.702 L 1146.87 232.151 z"/>
<path transform="translate(0,0)" fill="rgb(169,46,58)" d="M 844.467 226.411 C 847.543 229.896 848.286 232.978 849.754 237.316 C 851.795 244.955 854.257 252.709 856.21 260.226 C 847.247 257.433 823.284 249.758 816.604 244.101 C 822.858 240.963 838.87 230.494 844.467 226.411 z"/>
<path transform="translate(0,0)" fill="rgb(169,46,58)" d="M 717.62 279.447 C 720.47 273.769 720.706 269.742 727.342 271.134 C 732.701 277.956 740.623 282.376 748.611 292.788 C 736.657 295.11 721.462 298.148 709.436 299.564 C 712.078 292.03 714.304 286.725 717.62 279.447 z"/>
<path transform="translate(0,0)" fill="rgb(169,46,58)" d="M 843.066 316.742 C 846.551 322.879 856.395 340.838 854.796 347.4 C 849.343 352.022 827.412 343.376 820.565 340.689 C 826.217 333.829 831.978 327.879 838.1 321.474 L 843.066 316.742 z"/>
<path transform="translate(0,0)" fill="rgb(169,46,58)" d="M 743.514 270.979 C 750.554 269.034 767.867 262.341 773.273 265.372 C 776.795 270.738 774.173 276.008 772.625 281.995 C 771.698 286.71 770.825 292.359 769.011 296.725 C 762.933 292.67 746.612 277.083 743.514 270.979 z"/>
<path transform="translate(0,0)" fill="rgb(242,224,180)" d="M 867.478 298.738 L 872.759 298.117 C 867.724 304.779 864.224 311.48 860.39 318.89 C 855.899 314.628 853.892 310.292 851.034 304.921 C 856.744 303.528 862.265 301.452 867.478 298.738 z"/>
<path transform="translate(0,0)" fill="rgb(248,244,225)" d="M 631.063 368.595 C 636.482 376.011 643.326 384.785 651.272 390.172 C 696.017 420.507 757.664 427.412 809.706 436.593 C 829.014 439.999 862.083 443.068 878.98 448.162 C 878.998 460.918 880.117 570.99 878.271 575.363 C 879.945 578.513 879.689 633.68 878.82 640.37 L 877.226 641.674 L 879.094 643.067 C 880.036 651.891 879.144 675.393 879.018 685.283 C 818.352 683.915 663.936 657.975 632.172 599.803 L 630.767 600.015 C 631.286 596.271 633.49 585.44 630.543 583.085 C 630.068 576.085 630.691 559.715 631.839 552.853 C 630.256 536.171 631.059 505.927 631.036 488.123 C 630.31 449.098 630.763 407.668 631.063 368.595 z"/>
<path transform="translate(0,0)" fill="rgb(169,46,58)" d="M 631.036 488.123 C 646.199 519.271 680.142 533.33 711.614 543.868 C 758.707 559.635 828.698 572.654 878.271 575.363 C 879.945 578.513 879.689 633.68 878.82 640.37 L 877.226 641.674 L 879.094 643.067 C 880.036 651.891 879.144 675.393 879.018 685.283 C 818.352 683.915 663.936 657.975 632.172 599.803 L 630.767 600.015 C 631.286 596.271 633.49 585.44 630.543 583.085 C 630.068 576.085 630.691 559.715 631.839 552.853 C 630.256 536.171 631.059 505.927 631.036 488.123 z"/>
<path transform="translate(0,0)" fill="rgb(248,244,225)" d="M 631.839 552.853 C 657.08 617.347 817.787 633.988 877.226 641.674 L 879.094 643.067 C 880.036 651.891 879.144 675.393 879.018 685.283 C 818.352 683.915 663.936 657.975 632.172 599.803 L 630.767 600.015 C 631.286 596.271 633.49 585.44 630.543 583.085 C 630.068 576.085 630.691 559.715 631.839 552.853 z"/>
<path transform="translate(0,0)" fill="rgb(169,46,58)" d="M 1036.11 596.315 C 1037.76 595.359 1038.36 594.799 1040.72 595.611 C 1057.26 601.303 1074.07 608.445 1090.43 614.499 L 1169.41 644.051 C 1179.67 647.917 1219.04 660.428 1222.16 669.999 C 1228.39 689.03 1224.86 720.118 1225.01 740.567 C 1205.11 732.403 1181.96 724.145 1161.69 716.466 L 1038.21 669.768 C 1037.39 657.829 1039.64 601.88 1036.11 596.315 z"/>
<path transform="translate(0,0)" fill="rgb(169,46,58)" d="M 1246.73 673.402 C 1296.28 660.685 1366.3 647.197 1393.9 599.742 L 1393.94 610.942 C 1394.02 622.494 1395.69 667.605 1391.6 676.434 C 1374.81 712.668 1311.69 731.049 1275.37 741.777 C 1267.18 744.194 1253.35 747.778 1246.93 748.065 C 1246.11 724.585 1247 697.466 1246.73 673.402 z"/>
<path transform="translate(0,0)" fill="rgb(139,38,46)" d="M 1036.11 596.315 C 1039.64 601.88 1037.39 657.829 1038.21 669.768 L 900.051 750.384 C 899.433 672.104 887.401 682.526 954.253 643.8 L 1036.11 596.315 z"/>
<path transform="translate(0,0)" fill="rgb(169,46,58)" d="M 1246.88 563.319 C 1294.22 553.287 1370.09 535.773 1393.9 489.897 C 1393.95 505.876 1393.91 521.856 1393.78 537.834 C 1393.75 541.565 1393.11 553.946 1393.69 557.106 C 1391.42 557.644 1388.87 564.642 1386.94 567.056 C 1358.63 602.519 1288.41 620.018 1246.99 628.748 L 1246.88 563.319 z"/>
<path transform="translate(0,0)" fill="rgb(169,46,58)" d="M 1037.52 374.01 C 1046.81 376.674 1063.77 383.772 1073.32 387.462 L 1141.24 413.779 L 1187.6 431.656 C 1203.03 437.603 1223.29 441.805 1224.91 461.719 C 1226.61 482.494 1225.01 503.884 1224.95 524.799 L 1100.85 476.597 C 1080.38 468.683 1057.94 459.392 1037.46 452.242 C 1038.25 449.928 1038 379.497 1037.52 374.01 z"/>
<path transform="translate(0,0)" fill="rgb(169,46,58)" d="M 1036.12 487.316 C 1037.25 486.627 1037.68 486.03 1038.6 486.315 C 1046.65 488.806 1055.07 492.277 1062.97 495.292 L 1110.75 513.55 L 1171.99 536.961 C 1182.46 540.943 1213.46 551.566 1219.34 558.63 C 1229.7 571.079 1225.37 616.54 1224.93 632.818 L 1098.61 583.943 C 1089.75 580.566 1044.86 564.218 1038.79 560.787 C 1036.28 548.164 1040.3 492.215 1036.12 487.316 z"/>
<path transform="translate(0,0)" fill="rgb(139,38,46)" d="M 901.425 532.904 C 898.236 519.546 895.188 460.875 907.3 452.064 C 947.548 422.787 996.102 401.789 1037.52 374.01 C 1038 379.497 1038.25 449.928 1037.46 452.242 L 901.425 532.904 z"/>
<path transform="translate(0,0)" fill="rgb(139,38,46)" d="M 1036.12 487.316 C 1040.3 492.215 1036.28 548.164 1038.79 560.787 C 1032.54 563.465 1004.76 580.285 997.698 584.4 C 965.196 603.358 932.823 622.536 900.582 641.933 C 899.182 623.763 897.934 591.64 901.529 573.484 C 902.371 568.916 908.746 562.042 912.609 559.773 C 953.393 535.827 994.955 510.472 1036.12 487.316 z"/>
</svg>